<svg version="1.1" viewBox="0.0 0.0 960.0 720.0" fill="none" stroke="none" stroke-linecap="square" stroke-miterlimit="10" xmlns:xlink="http://www.w3.org/1999/xlink" xmlns="http://www.w3.org/2000/svg"><clipPath id="p.0"><path d="m0 0l960.0 0l0 720.0l-960.0 0l0 -720.0z" clip-rule="nonzero"/></clipPath><g clip-path="url(#p.0)"><path fill="#000000" fill-opacity="0.0" d="m0 0l960.0 0l0 720.0l-960.0 0z" fill-rule="evenodd"/><path fill="#efefef" d="m214.48819 56.15223l136.75589 0l0 73.35433l-136.75589 0z" fill-rule="evenodd"/><path stroke="#cccccc" stroke-width="1.0" stroke-linejoin="round" stroke-linecap="butt" d="m214.48819 56.15223l136.75589 0l0 73.35433l-136.75589 0z" fill-rule="evenodd"/><path fill="#434343" d="m244.76897 78.5619q0.265625 0 0.59375 0.03125q0.328125 0.015625 0.5625 0.0625l-0.21875 1.53125q-0.25 -0.046875 -0.515625 -0.078125q-0.265625 -0.03125 -0.5 -0.03125q-0.578125 0 -1.0625 0.234375q-0.46875 0.234375 -0.8125 0.671875q-0.34375 0.421875 -0.53125 1.03125q-0.171875 0.609375 -0.171875 1.34375l0 5.390625l-1.671875 0l0 -10.0l1.359375 0l0.203125 1.828125l0.0625 0q0.234375 -0.390625 0.484375 -0.75q0.265625 -0.375 0.578125 -0.640625q0.328125 -0.28125 0.734375 -0.453125q0.40625 -0.171875 0.90625 -0.171875zm11.270584 5.171875q0 1.25 -0.3125 2.21875q-0.296875 0.96875 -0.875 1.625q-0.5625 0.65625 -1.375 1.015625q-0.796875 0.34375 -1.8125 0.34375q-0.9375 0 -1.734375 -0.34375q-0.796875 -0.359375 -1.375 -1.015625q-0.578125 -0.65625 -0.90625 -1.625q-0.3125 -0.96875 -0.3125 -2.21875q0 -1.25 0.296875 -2.203125q0.3125 -0.96875 0.875 -1.625q0.5625 -0.65625 1.375 -1.0q0.828125 -0.34375 1.828125 -0.34375q0.9375 0 1.734375 0.34375q0.796875 0.34375 1.375 1.0q0.578125 0.65625 0.890625 1.625q0.328125 0.953125 0.328125 2.203125zm-7.0 0q0 1.90625 0.625 2.875q0.625 0.953125 2.03125 0.953125q1.40625 0 2.015625 -0.953125q0.625 -0.96875 0.625 -2.875q0 -1.90625 -0.625 -2.84375q-0.625 -0.953125 -2.03125 -0.953125q-1.40625 0 -2.03125 0.953125q-0.609375 0.9375 -0.609375 2.84375zm16.09555 5.015625l-0.25 -1.34375l-0.09375 0q-0.21875 0.390625 -0.53125 0.6875q-0.3125 0.28125 -0.6875 0.46875q-0.375 0.1875 -0.796875 0.28125q-0.421875 0.09375 -0.859375 0.09375q-0.828125 0 -1.453125 -0.203125q-0.625 -0.21875 -1.046875 -0.65625q-0.421875 -0.453125 -0.640625 -1.140625q-0.203125 -0.703125 -0.203125 -1.65625l0 -6.53125l1.65625 0l0 6.4375q0 1.1875 0.484375 1.78125q0.484375 0.59375 1.484375 0.59375q0.734375 0 1.234375 -0.234375q0.515625 -0.25 0.8125 -0.703125q0.3125 -0.46875 0.4375 -1.140625q0.140625 -0.671875 0.140625 -1.546875l0 -5.1875l1.65625 0l0 10.0l-1.34375 0zm7.5329285 -1.171875q0.15625 0 0.359375 -0.015625q0.21875 -0.03125 0.40625 -0.046875q0.1875 -0.03125 0.34375 -0.0625q0.171875 -0.046875 0.25 -0.0625l0 1.25q-0.125 0.0625 -0.3125 0.109375q-0.171875 0.046875 -0.390625 0.09375q-0.21875 0.046875 -0.453125 0.0625q-0.234375 0.03125 -0.46875 0.03125q-0.5625 0 -1.046875 -0.15625q-0.484375 -0.140625 -0.84375 -0.484375q-0.34375 -0.359375 -0.546875 -0.96875q-0.1875 -0.609375 -0.1875 -1.53125l0 -5.796875l-1.421875 0l0 -0.734375l1.421875 -0.71875l0.703125 -2.09375l0.953125 0l0 2.296875l2.515625 0l0 1.25l-2.515625 0l0 5.796875q0 0.890625 0.28125 1.34375q0.296875 0.4375 0.953125 0.4375zm7.243866 1.359375q-1.0 0 -1.828125 -0.328125q-0.828125 -0.34375 -1.421875 -0.984375q-0.59375 -0.65625 -0.921875 -1.609375q-0.328125 -0.96875 -0.328125 -2.1875q0 -1.25 0.296875 -2.21875q0.296875 -0.96875 0.84375 -1.640625q0.546875 -0.6875 1.3125 -1.046875q0.765625 -0.359375 1.6875 -0.359375q0.890625 0 1.609375 0.328125q0.71875 0.328125 1.21875 0.921875q0.515625 0.578125 0.78125 1.40625q0.265625 0.8125 0.265625 1.8125l0 1.03125l-6.3125 0q0.046875 1.765625 0.75 2.59375q0.703125 0.828125 2.078125 0.828125q0.453125 0 0.84375 -0.046875q0.40625 -0.046875 0.765625 -0.125q0.375 -0.09375 0.71875 -0.21875q0.359375 -0.140625 0.703125 -0.296875l0 1.46875q-0.359375 0.171875 -0.71875 0.3125q-0.34375 0.125 -0.71875 0.203125q-0.359375 0.078125 -0.765625 0.109375q-0.390625 0.046875 -0.859375 0.046875zm-0.40625 -9.0q-1.03125 0 -1.640625 0.71875q-0.609375 0.703125 -0.703125 2.0625l4.484375 0q0 -0.625 -0.125 -1.125q-0.125 -0.515625 -0.390625 -0.875q-0.25 -0.375 -0.65625 -0.578125q-0.40625 -0.203125 -0.96875 -0.203125zm12.562134 11.765625l-7.734375 0l0 -1.28125l7.734375 0l0 1.28125zm9.154572 -2.953125l-1.53125 -5.609375q-0.046875 -0.171875 -0.109375 -0.375q-0.046875 -0.203125 -0.109375 -0.421875q-0.046875 -0.234375 -0.109375 -0.46875q-0.046875 -0.234375 -0.109375 -0.46875q-0.125 -0.53125 -0.265625 -1.09375l-0.046875 0q-0.125 0.578125 -0.25 1.109375q-0.09375 0.453125 -0.21875 0.9375q-0.109375 0.484375 -0.203125 0.8125l-1.5625 5.578125l-1.9375 0l-2.546875 -10.0l1.734375 0l1.1875 5.3125q0.09375 0.421875 0.1875 0.90625q0.09375 0.46875 0.171875 0.9375q0.078125 0.46875 0.140625 0.890625q0.078125 0.40625 0.109375 0.671875l0.046875 0q0.046875 -0.234375 0.125 -0.625q0.078125 -0.40625 0.171875 -0.84375q0.09375 -0.453125 0.1875 -0.875q0.109375 -0.4375 0.203125 -0.734375l1.625 -5.640625l1.796875 0l1.5625 5.640625q0.078125 0.3125 0.1875 0.734375q0.109375 0.40625 0.203125 0.84375q0.09375 0.4375 0.171875 0.84375q0.09375 0.390625 0.125 0.65625l0.0625 0q0.03125 -0.234375 0.078125 -0.625q0.0625 -0.40625 0.140625 -0.875q0.09375 -0.484375 0.1875 -0.96875q0.09375 -0.5 0.1875 -0.9375l1.25 -5.3125l1.703125 0l-2.59375 10.0l-1.953125 0zm10.263062 0.1875q-1.0 0 -1.828125 -0.328125q-0.828125 -0.34375 -1.421875 -0.984375q-0.59375 -0.65625 -0.921875 -1.609375q-0.328125 -0.96875 -0.328125 -2.1875q0 -1.25 0.296875 -2.21875q0.296875 -0.96875 0.84375 -1.640625q0.546875 -0.6875 1.3125 -1.046875q0.765625 -0.359375 1.6875 -0.359375q0.890625 0 1.609375 0.328125q0.71875 0.328125 1.21875 0.921875q0.515625 0.578125 0.78125 1.40625q0.265625 0.8125 0.265625 1.8125l0 1.03125l-6.3125 0q0.046875 1.765625 0.75 2.59375q0.703125 0.828125 2.078125 0.828125q0.453125 0 0.84375 -0.046875q0.40625 -0.046875 0.765625 -0.125q0.375 -0.09375 0.71875 -0.21875q0.359375 -0.140625 0.703125 -0.296875l0 1.46875q-0.359375 0.171875 -0.71875 0.3125q-0.34375 0.125 -0.71875 0.203125q-0.359375 0.078125 -0.765625 0.109375q-0.390625 0.046875 -0.859375 0.046875zm-0.40625 -9.0q-1.03125 0 -1.640625 0.71875q-0.609375 0.703125 -0.703125 2.0625l4.484375 0q0 -0.625 -0.125 -1.125q-0.125 -0.515625 -0.390625 -0.875q-0.25 -0.375 -0.65625 -0.578125q-0.40625 -0.203125 -0.96875 -0.203125zm10.968384 -1.375q0.84375 0 1.546875 0.328125q0.703125 0.328125 1.203125 0.984375q0.5 0.65625 0.765625 1.625q0.28125 0.953125 0.28125 2.234375q0 1.28125 -0.28125 2.25q-0.265625 0.96875 -0.765625 1.625q-0.5 0.65625 -1.203125 1.0q-0.703125 0.328125 -1.546875 0.328125q-0.546875 0 -0.984375 -0.125q-0.4375 -0.109375 -0.796875 -0.3125q-0.34375 -0.203125 -0.609375 -0.453125q-0.265625 -0.265625 -0.46875 -0.5625l-0.109375 0l-0.34375 1.265625l-1.21875 0l0 -14.171875l1.671875 0l0 3.421875q0 0.3125 -0.015625 0.6875q-0.015625 0.359375 -0.03125 0.65625q-0.015625 0.375 -0.03125 0.71875l0.078125 0q0.203125 -0.328125 0.46875 -0.59375q0.265625 -0.28125 0.609375 -0.46875q0.359375 -0.203125 0.796875 -0.3125q0.4375 -0.125 0.984375 -0.125zm-0.328125 1.375q-0.71875 0 -1.21875 0.234375q-0.484375 0.234375 -0.78125 0.71875q-0.296875 0.46875 -0.421875 1.1875q-0.109375 0.703125 -0.109375 1.65625q0 0.921875 0.109375 1.640625q0.125 0.703125 0.421875 1.203125q0.296875 0.484375 0.78125 0.734375q0.5 0.25 1.234375 0.25q1.234375 0 1.8125 -0.984375q0.578125 -1.0 0.578125 -2.859375q0 -1.90625 -0.578125 -2.84375q-0.578125 -0.9375 -1.828125 -0.9375z" fill-rule="nonzero"/><path fill="#434343" d="m250.50307 105.64002q0 -1.140625 0.15625 -2.25q0.171875 -1.109375 0.5 -2.140625q0.34375 -1.046875 0.859375 -2.0q0.515625 -0.96875 1.21875 -1.8125l1.578125 0q-1.28125 1.75 -1.953125 3.859375q-0.65625 2.109375 -0.65625 4.328125q0 1.078125 0.171875 2.15625q0.171875 1.078125 0.484375 2.109375q0.328125 1.015625 0.8125 1.984375q0.484375 0.96875 1.109375 1.828125l-1.546875 0q-0.703125 -0.828125 -1.21875 -1.765625q-0.515625 -0.9375 -0.859375 -1.953125q-0.328125 -1.03125 -0.5 -2.125q-0.15625 -1.09375 -0.15625 -2.21875zm16.642685 5.109375l-1.953125 0l-6.546875 -11.015625l-0.078125 0q0.0625 0.6875 0.09375 1.390625q0.03125 0.59375 0.046875 1.234375q0.03125 0.640625 0.03125 1.171875l0 7.21875l-1.5625 0l0 -13.3125l1.9375 0l6.53125 10.96875l0.0625 0q-0.03125 -0.703125 -0.0625 -1.375q-0.015625 -0.296875 -0.03125 -0.59375q-0.015625 -0.3125 -0.03125 -0.609375q0 -0.3125 -0.015625 -0.59375q0 -0.28125 0 -0.515625l0 -7.28125l1.578125 0l0 13.3125zm7.3504944 0.1875q-1.0 0 -1.828125 -0.328125q-0.828125 -0.34375 -1.421875 -0.984375q-0.59375 -0.65625 -0.921875 -1.609375q-0.328125 -0.96875 -0.328125 -2.1875q0 -1.25 0.296875 -2.21875q0.296875 -0.96875 0.84375 -1.640625q0.546875 -0.6875 1.3125 -1.046875q0.765625 -0.359375 1.6875 -0.359375q0.890625 0 1.609375 0.328125q0.71875 0.328125 1.21875 0.921875q0.515625 0.578125 0.78125 1.40625q0.265625 0.8125 0.265625 1.8125l0 1.03125l-6.3125 0q0.046875 1.765625 0.75 2.59375q0.703125 0.828125 2.078125 0.828125q0.453125 0 0.84375 -0.046875q0.40625 -0.046875 0.765625 -0.125q0.375 -0.09375 0.71875 -0.21875q0.359375 -0.140625 0.703125 -0.296875l0 1.46875q-0.359375 0.171875 -0.71875 0.3125q-0.34375 0.125 -0.71875 0.203125q-0.359375 0.078125 -0.765625 0.109375q-0.390625 0.046875 -0.859375 0.046875zm-0.40625 -9.0q-1.03125 0 -1.640625 0.71875q-0.609375 0.703125 -0.703125 2.0625l4.484375 0q0 -0.625 -0.125 -1.125q-0.125 -0.515625 -0.390625 -0.875q-0.25 -0.375 -0.65625 -0.578125q-0.40625 -0.203125 -0.96875 -0.203125zm9.468384 7.640625q0.15625 0 0.359375 -0.015625q0.21875 -0.03125 0.40625 -0.046875q0.1875 -0.03125 0.34375 -0.0625q0.171875 -0.046875 0.25 -0.0625l0 1.25q-0.125 0.0625 -0.3125 0.109375q-0.171875 0.046875 -0.390625 0.09375q-0.21875 0.046875 -0.453125 0.0625q-0.234375 0.03125 -0.46875 0.03125q-0.5625 0 -1.046875 -0.15625q-0.484375 -0.140625 -0.84375 -0.484375q-0.34375 -0.359375 -0.546875 -0.96875q-0.1875 -0.609375 -0.1875 -1.53125l0 -5.796875l-1.421875 0l0 -0.734375l1.421875 -0.71875l0.703125 -2.09375l0.953125 0l0 2.296875l2.515625 0l0 1.25l-2.515625 0l0 5.796875q0 0.890625 0.28125 1.34375q0.296875 0.4375 0.953125 0.4375zm4.962616 1.171875l-1.671875 0l0 -14.171875l1.671875 0l0 14.171875zm4.8280334 0l-1.671875 0l0 -10.0l1.671875 0l0 10.0zm-1.796875 -12.703125q0 -0.546875 0.28125 -0.796875q0.28125 -0.25 0.6875 -0.25q0.203125 0 0.375 0.0625q0.1875 0.0625 0.3125 0.1875q0.140625 0.125 0.203125 0.328125q0.078125 0.1875 0.078125 0.46875q0 0.53125 -0.28125 0.796875q-0.28125 0.25 -0.6875 0.25q-0.40625 0 -0.6875 -0.25q-0.28125 -0.265625 -0.28125 -0.796875zm9.312408 3.953125l-2.234375 0l0 8.75l-1.671875 0l0 -8.75l-1.765625 0l0 -0.6875l1.765625 -0.625l0 -0.875q0 -0.96875 0.203125 -1.609375q0.203125 -0.640625 0.59375 -1.015625q0.390625 -0.390625 0.953125 -0.546875q0.5625 -0.171875 1.28125 -0.171875q0.53125 0 0.984375 0.109375q0.453125 0.109375 0.796875 0.234375l-0.421875 1.28125q-0.28125 -0.09375 -0.625 -0.171875q-0.328125 -0.078125 -0.6875 -0.078125q-0.359375 0 -0.625 0.09375q-0.265625 0.078125 -0.4375 0.296875q-0.171875 0.21875 -0.265625 0.59375q-0.078125 0.375 -0.078125 0.96875l0 0.953125l2.234375 0l0 1.25zm0.47833252 -1.25l1.71875 0l1.953125 5.578125q0.140625 0.375 0.265625 0.78125q0.125 0.390625 0.234375 0.796875q0.125 0.390625 0.203125 0.765625q0.09375 0.375 0.125 0.6875l0.046875 0q0.046875 -0.21875 0.140625 -0.609375q0.109375 -0.390625 0.234375 -0.828125q0.125 -0.453125 0.25 -0.875q0.140625 -0.4375 0.234375 -0.734375l1.8125 -5.5625l1.71875 0l-3.953125 11.296875q-0.265625 0.75 -0.5625 1.328125q-0.28125 0.59375 -0.6875 1.0q-0.390625 0.40625 -0.921875 0.625q-0.515625 0.234375 -1.25 0.234375q-0.46875 0 -0.828125 -0.0625q-0.34375 -0.046875 -0.578125 -0.09375l0 -1.328125q0.1875 0.046875 0.46875 0.078125q0.296875 0.03125 0.625 0.03125q0.4375 0 0.75 -0.109375q0.3125 -0.09375 0.546875 -0.296875q0.25 -0.203125 0.40625 -0.5q0.171875 -0.28125 0.3125 -0.65625l0.515625 -1.453125l-3.78125 -10.09375zm13.899872 4.890625q0 1.125 -0.171875 2.21875q-0.15625 1.09375 -0.5 2.125q-0.34375 1.015625 -0.859375 1.953125q-0.515625 0.9375 -1.21875 1.765625l-1.546875 0q0.625 -0.859375 1.109375 -1.828125q0.484375 -0.96875 0.8125 -1.984375q0.328125 -1.03125 0.484375 -2.109375q0.171875 -1.078125 0.171875 -2.15625q0 -2.21875 -0.65625 -4.328125q-0.65625 -2.109375 -1.9375 -3.859375l1.5625 0q0.703125 0.84375 1.21875 1.8125q0.515625 0.953125 0.859375 2.0q0.34375 1.03125 0.5 2.140625q0.171875 1.109375 0.171875 2.25z" fill-rule="nonzero"/><path fill="#efefef" d="m214.48819 239.69817l136.75589 0l0 73.354324l-136.75589 0z" fill-rule="evenodd"/><path stroke="#cccccc" stroke-width="1.0" stroke-linejoin="round" stroke-linecap="butt" d="m214.48819 239.69817l136.75589 0l0 73.354324l-136.75589 0z" fill-rule="evenodd"/><path fill="#434343" d="m249.35559 262.10782q0.265625 0 0.59375 0.03125q0.328125 0.015625 0.5625 0.0625l-0.21875 1.53125q-0.25 -0.046875 -0.515625 -0.078125q-0.265625 -0.03125 -0.5 -0.03125q-0.578125 0 -1.0625 0.234375q-0.46875 0.234375 -0.8125 0.671875q-0.34375 0.421875 -0.53125 1.03125q-0.171875 0.609375 -0.171875 1.34375l0 5.390625l-1.671875 0l0 -10.0l1.359375 0l0.203125 1.828125l0.0625 0q0.234375 -0.390625 0.484375 -0.75q0.265625 -0.375 0.578125 -0.640625q0.328125 -0.28125 0.734375 -0.453125q0.40625 -0.171875 0.90625 -0.171875zm11.270599 5.171875q0 1.25 -0.3125 2.21875q-0.296875 0.96875 -0.875 1.625q-0.5625 0.65625 -1.375 1.015625q-0.796875 0.34375 -1.8125 0.34375q-0.93751526 0 -1.7343903 -0.34375q-0.796875 -0.359375 -1.375 -1.015625q-0.578125 -0.65625 -0.90625 -1.625q-0.3125 -0.96875 -0.3125 -2.21875q0 -1.25 0.296875 -2.203125q0.3125 -0.96875 0.875 -1.625q0.5625 -0.65625 1.375 -1.0q0.828125 -0.34375 1.8281403 -0.34375q0.9375 0 1.734375 0.34375q0.796875 0.34375 1.375 1.0q0.578125 0.65625 0.890625 1.625q0.328125 0.953125 0.328125 2.203125zm-7.0000153 0q0 1.90625 0.625 2.875q0.625 0.953125 2.0312653 0.953125q1.40625 0 2.015625 -0.953125q0.625 -0.96875 0.625 -2.875q0 -1.90625 -0.625 -2.84375q-0.625 -0.953125 -2.03125 -0.953125q-1.4062653 0 -2.0312653 0.953125q-0.609375 0.9375 -0.609375 2.84375zm16.095566 5.015625l-0.25 -1.34375l-0.09375 0q-0.21875 0.390625 -0.53125 0.6875q-0.3125 0.28125 -0.6875 0.46875q-0.375 0.1875 -0.796875 0.28125q-0.421875 0.09375 -0.859375 0.09375q-0.828125 0 -1.453125 -0.203125q-0.625 -0.21875 -1.046875 -0.65625q-0.421875 -0.453125 -0.640625 -1.140625q-0.203125 -0.703125 -0.203125 -1.65625l0 -6.53125l1.65625 0l0 6.4375q0 1.1875 0.484375 1.78125q0.484375 0.59375 1.484375 0.59375q0.734375 0 1.234375 -0.234375q0.515625 -0.25 0.8125 -0.703125q0.3125 -0.46875 0.4375 -1.140625q0.140625 -0.671875 0.140625 -1.546875l0 -5.1875l1.65625 0l0 10.0l-1.34375 0zm7.5329285 -1.171875q0.15625 0 0.359375 -0.015625q0.21875 -0.03125 0.40625 -0.046875q0.1875 -0.03125 0.34375 -0.0625q0.171875 -0.046875 0.25 -0.0625l0 1.25q-0.125 0.0625 -0.3125 0.109375q-0.171875 0.046875 -0.390625 0.09375q-0.21875 0.046875 -0.453125 0.0625q-0.234375 0.03125 -0.46875 0.03125q-0.5625 0 -1.046875 -0.15625q-0.484375 -0.140625 -0.84375 -0.484375q-0.34375 -0.359375 -0.546875 -0.96875q-0.1875 -0.609375 -0.1875 -1.53125l0 -5.796875l-1.421875 0l0 -0.734375l1.421875 -0.71875l0.703125 -2.09375l0.953125 0l0 2.296875l2.515625 0l0 1.25l-2.515625 0l0 5.796875q0 0.890625 0.28125 1.34375q0.296875 0.4375 0.953125 0.4375zm7.243866 1.359375q-1.0 0 -1.828125 -0.328125q-0.828125 -0.34375 -1.421875 -0.984375q-0.59375 -0.65625 -0.921875 -1.609375q-0.328125 -0.96875 -0.328125 -2.1875q0 -1.25 0.296875 -2.21875q0.296875 -0.96875 0.84375 -1.640625q0.546875 -0.6875 1.3125 -1.046875q0.765625 -0.359375 1.6875 -0.359375q0.890625 0 1.609375 0.328125q0.71875 0.328125 1.21875 0.921875q0.515625 0.578125 0.78125 1.40625q0.265625 0.8125 0.265625 1.8125l0 1.03125l-6.3125 0q0.046875 1.765625 0.75 2.59375q0.703125 0.828125 2.078125 0.828125q0.453125 0 0.84375 -0.046875q0.40625 -0.046875 0.765625 -0.125q0.375 -0.09375 0.71875 -0.21875q0.359375 -0.140625 0.703125 -0.296875l0 1.46875q-0.359375 0.171875 -0.71875 0.3125q-0.34375 0.125 -0.71875 0.203125q-0.359375 0.078125 -0.765625 0.109375q-0.390625 0.046875 -0.859375 0.046875zm-0.40625 -9.0q-1.03125 0 -1.640625 0.71875q-0.609375 0.703125 -0.703125 2.0625l4.484375 0q0 -0.625 -0.125 -1.125q-0.125 -0.515625 -0.390625 -0.875q-0.25 -0.375 -0.65625 -0.578125q-0.40625 -0.203125 -0.96875 -0.203125zm12.562134 11.765625l-7.734375 0l0 -1.28125l7.734375 0l0 1.28125zm7.1858215 -2.953125l-0.328125 -1.390625l-0.078125 0q-0.296875 0.421875 -0.609375 0.71875q-0.296875 0.296875 -0.65625 0.484375q-0.34375 0.1875 -0.78125 0.28125q-0.4375 0.09375 -1.015625 0.09375q-0.625 0 -1.15625 -0.1875q-0.53125 -0.171875 -0.921875 -0.53125q-0.375 -0.375 -0.59375 -0.9375q-0.21875 -0.5625 -0.21875 -1.328125q0 -1.5 1.046875 -2.296875q1.046875 -0.796875 3.203125 -0.875l1.671875 -0.0625l0 -0.625q0 -0.609375 -0.140625 -1.015625q-0.125 -0.421875 -0.375 -0.671875q-0.25 -0.25 -0.625 -0.359375q-0.359375 -0.109375 -0.828125 -0.109375q-0.765625 0 -1.421875 0.21875q-0.640625 0.21875 -1.234375 0.53125l-0.59375 -1.25q0.671875 -0.359375 1.5 -0.609375q0.84375 -0.265625 1.75 -0.265625q0.921875 0 1.59375 0.1875q0.6875 0.1875 1.125 0.59375q0.453125 0.40625 0.671875 1.03125q0.21875 0.625 0.21875 1.53125l0 6.84375l-1.203125 0zm-3.03125 -1.15625q0.546875 0 1.015625 -0.171875q0.484375 -0.171875 0.828125 -0.515625q0.34375 -0.359375 0.53125 -0.890625q0.203125 -0.53125 0.203125 -1.25l0 -0.90625l-1.296875 0.0625q-0.828125 0.03125 -1.390625 0.1875q-0.546875 0.140625 -0.875 0.40625q-0.328125 0.25 -0.484375 0.625q-0.140625 0.359375 -0.140625 0.828125q0 0.84375 0.4375 1.234375q0.453125 0.390625 1.171875 0.390625zm11.823883 1.34375q-0.546875 0 -0.984375 -0.125q-0.4375 -0.109375 -0.796875 -0.3125q-0.34375 -0.203125 -0.609375 -0.453125q-0.265625 -0.265625 -0.46875 -0.5625l-0.109375 0q0.015625 0.3125 0.046875 0.59375q0.015625 0.234375 0.03125 0.484375q0.03125 0.25 0.03125 0.390625l0 4.28125l-1.671875 0l0 -14.484375l1.359375 0l0.234375 1.34375l0.078125 0q0.203125 -0.3125 0.46875 -0.59375q0.265625 -0.28125 0.609375 -0.484375q0.359375 -0.203125 0.796875 -0.328125q0.4375 -0.125 0.984375 -0.125q0.84375 0 1.546875 0.328125q0.703125 0.328125 1.203125 0.984375q0.5 0.65625 0.765625 1.625q0.28125 0.953125 0.28125 2.234375q0 1.28125 -0.28125 2.25q-0.265625 0.96875 -0.765625 1.625q-0.5 0.65625 -1.203125 1.0q-0.703125 0.328125 -1.546875 0.328125zm-0.328125 -9.0q-0.6875 0 -1.171875 0.21875q-0.46875 0.203125 -0.765625 0.640625q-0.296875 0.421875 -0.4375 1.0625q-0.140625 0.625 -0.15625 1.5l0 0.375q0 0.921875 0.109375 1.640625q0.125 0.703125 0.421875 1.203125q0.296875 0.484375 0.78125 0.734375q0.5 0.25 1.234375 0.25q1.234375 0 1.8125 -0.984375q0.578125 -1.0 0.578125 -2.859375q0 -1.90625 -0.578125 -2.84375q-0.578125 -0.9375 -1.828125 -0.9375zm8.4001465 8.8125l-1.671875 0l0 -10.0l1.671875 0l0 10.0zm-1.796875 -12.703125q0 -0.546875 0.28125 -0.796875q0.28125 -0.25 0.6875 -0.25q0.203125 0 0.375 0.0625q0.1875 0.0625 0.3125 0.1875q0.140625 0.125 0.203125 0.328125q0.078125 0.1875 0.078125 0.46875q0 0.53125 -0.28125 0.796875q-0.28125 0.25 -0.6875 0.25q-0.40625 0 -0.6875 -0.25q-0.28125 -0.265625 -0.28125 -0.796875z" fill-rule="nonzero"/><path fill="#434343" d="m247.24648 289.18594q0 -1.140625 0.15625 -2.25q0.171875 -1.109375 0.5 -2.140625q0.34375 -1.046875 0.859375 -2.0q0.515625 -0.96875 1.21875 -1.8125l1.578125 0q-1.28125 1.75 -1.953125 3.859375q-0.65625 2.109375 -0.65625 4.328125q0 1.078125 0.171875 2.15625q0.171875 1.078125 0.484375 2.109375q0.328125 1.015625 0.8125 1.984375q0.484375 0.96875 1.109375 1.828125l-1.546875 0q-0.703125 -0.828125 -1.21875 -1.765625q-0.515625 -0.9375 -0.859375 -1.953125q-0.328125 -1.03125 -0.5 -2.125q-0.15625 -1.09375 -0.15625 -2.21875zm16.12706 5.109375l-1.6875 0l0 -6.21875l-6.0781097 0l0 6.21875l-1.6875 0l0 -13.3125l1.6875 0l0 5.609375l6.0781097 0l0 -5.609375l1.6875 0l0 13.3125zm7.346863 0.1875q-1.0 0 -1.828125 -0.328125q-0.828125 -0.34375 -1.421875 -0.984375q-0.59375 -0.65625 -0.921875 -1.609375q-0.328125 -0.96875 -0.328125 -2.1875q0 -1.25 0.296875 -2.21875q0.296875 -0.96875 0.84375 -1.640625q0.546875 -0.6875 1.3125 -1.046875q0.765625 -0.359375 1.6875 -0.359375q0.890625 0 1.609375 0.328125q0.71875 0.328125 1.21875 0.921875q0.515625 0.578125 0.78125 1.40625q0.265625 0.8125 0.265625 1.8125l0 1.03125l-6.3125 0q0.046875 1.765625 0.75 2.59375q0.703125 0.828125 2.078125 0.828125q0.453125 0 0.84375 -0.046875q0.40625 -0.046875 0.765625 -0.125q0.375 -0.09375 0.71875 -0.21875q0.359375 -0.140625 0.703125 -0.296875l0 1.46875q-0.359375 0.171875 -0.71875 0.3125q-0.34375 0.125 -0.71875 0.203125q-0.359375 0.078125 -0.765625 0.109375q-0.390625 0.046875 -0.859375 0.046875zm-0.40625 -9.0q-1.03125 0 -1.640625 0.71875q-0.609375 0.703125 -0.703125 2.0625l4.484375 0q0 -0.625 -0.125 -1.125q-0.125 -0.515625 -0.390625 -0.875q-0.25 -0.375 -0.65625 -0.578125q-0.40625 -0.203125 -0.96875 -0.203125zm10.765259 -1.375q0.265625 0 0.59375 0.03125q0.328125 0.015625 0.5625 0.0625l-0.21875 1.53125q-0.25 -0.046875 -0.515625 -0.078125q-0.265625 -0.03125 -0.5 -0.03125q-0.578125 0 -1.0625 0.234375q-0.46875 0.234375 -0.8125 0.671875q-0.34375 0.421875 -0.53125 1.03125q-0.171875 0.609375 -0.171875 1.34375l0 5.390625l-1.671875 0l0 -10.0l1.359375 0l0.203125 1.828125l0.0625 0q0.234375 -0.390625 0.484375 -0.75q0.265625 -0.375 0.578125 -0.640625q0.328125 -0.28125 0.734375 -0.453125q0.40625 -0.171875 0.90625 -0.171875zm11.270599 5.171875q0 1.25 -0.3125 2.21875q-0.296875 0.96875 -0.875 1.625q-0.5625 0.65625 -1.375 1.015625q-0.796875 0.34375 -1.8125 0.34375q-0.9375 0 -1.734375 -0.34375q-0.796875 -0.359375 -1.375 -1.015625q-0.578125 -0.65625 -0.90625 -1.625q-0.3125 -0.96875 -0.3125 -2.21875q0 -1.25 0.296875 -2.203125q0.3125 -0.96875 0.875 -1.625q0.5625 -0.65625 1.375 -1.0q0.828125 -0.34375 1.828125 -0.34375q0.9375 0 1.734375 0.34375q0.796875 0.34375 1.375 1.0q0.578125 0.65625 0.890625 1.625q0.328125 0.953125 0.328125 2.203125zm-7.0 0q0 1.90625 0.625 2.875q0.625 0.953125 2.03125 0.953125q1.40625 0 2.015625 -0.953125q0.625 -0.96875 0.625 -2.875q0 -1.90625 -0.625 -2.84375q-0.625 -0.953125 -2.03125 -0.953125q-1.40625 0 -2.03125 0.953125q-0.609375 0.9375 -0.609375 2.84375zm11.142426 -0.15625l1.234375 -1.546875l2.671875 -3.28125l1.921875 0l-3.65625 4.328125l3.90625 5.671875l-1.90625 0l-3.0625 -4.59375l-1.0 0.75l0 3.84375l-1.640625 0l0 -14.171875l1.640625 0l0 6.5l-0.140625 2.5l0.03125 0zm14.208374 5.171875l-0.25 -1.34375l-0.09375 0q-0.21875 0.390625 -0.53125 0.6875q-0.3125 0.28125 -0.6875 0.46875q-0.375 0.1875 -0.796875 0.28125q-0.421875 0.09375 -0.859375 0.09375q-0.828125 0 -1.453125 -0.203125q-0.625 -0.21875 -1.046875 -0.65625q-0.421875 -0.453125 -0.640625 -1.140625q-0.203125 -0.703125 -0.203125 -1.65625l0 -6.53125l1.65625 0l0 6.4375q0 1.1875 0.484375 1.78125q0.484375 0.59375 1.484375 0.59375q0.734375 0 1.234375 -0.234375q0.515625 -0.25 0.8125 -0.703125q0.3125 -0.46875 0.4375 -1.140625q0.140625 -0.671875 0.140625 -1.546875l0 -5.1875l1.65625 0l0 10.0l-1.34375 0zm7.7985535 -5.109375q0 1.125 -0.171875 2.21875q-0.15625 1.09375 -0.5 2.125q-0.34375 1.015625 -0.859375 1.953125q-0.515625 0.9375 -1.21875 1.765625l-1.546875 0q0.625 -0.859375 1.109375 -1.828125q0.484375 -0.96875 0.8125 -1.984375q0.328125 -1.03125 0.484375 -2.109375q0.171875 -1.078125 0.171875 -2.15625q0 -2.21875 -0.65625 -4.328125q-0.65625 -2.109375 -1.9375 -3.859375l1.5625 0q0.703125 0.84375 1.21875 1.8125q0.515625 0.953125 0.859375 2.0q0.34375 1.03125 0.5 2.140625q0.171875 1.109375 0.171875 2.25z" fill-rule="nonzero"/><path fill="#000000" fill-opacity="0.0" d="m282.86615 129.50656l0 110.20473" fill-rule="evenodd"/><path stroke="#b7b7b7" stroke-width="1.0" stroke-linejoin="round" stroke-linecap="butt" d="m282.86615 129.50656l0 110.20473" fill-rule="evenodd"/><path fill="#000000" fill-opacity="0.0" d="m12.677165 268.0735l-0.9133854 2.7086792" fill-rule="evenodd"/><path stroke="#434343" stroke-width="1.0" stroke-linejoin="round" stroke-linecap="butt" d="m12.677165 268.0735l-0.9133854 2.7086792" fill-rule="evenodd"/><path fill="#efefef" d="m214.48819 397.43832l136.75589 0l0 73.35434l-136.75589 0z" fill-rule="evenodd"/><path stroke="#cccccc" stroke-width="1.0" stroke-linejoin="round" stroke-linecap="butt" d="m214.48819 397.43832l136.75589 0l0 73.35434l-136.75589 0z" fill-rule="evenodd"/><path fill="#434343" d="m249.36543 429.01987q-0.96875 0 -1.765625 0.375q-0.78125 0.359375 -1.34375 1.0625q-0.5625 0.6875 -0.875 1.6875q-0.296875 0.984375 -0.296875 2.234375q0 1.28125 0.265625 2.28125q0.265625 1.0 0.796875 1.6875q0.546875 0.671875 1.34375 1.03125q0.8125 0.359375 1.875 0.359375q0.8125 0 1.53125 -0.15625q0.734375 -0.171875 1.453125 -0.375l0 1.46875q-0.359375 0.140625 -0.71875 0.25q-0.34375 0.09375 -0.734375 0.15625q-0.390625 0.078125 -0.828125 0.109375q-0.4375 0.03125 -0.984375 0.03125q-1.484375 0 -2.578125 -0.484375q-1.09375 -0.5 -1.8125 -1.40625q-0.71875 -0.90625 -1.0625 -2.171875q-0.34375 -1.265625 -0.34375 -2.796875q0 -1.515625 0.390625 -2.765625q0.40625 -1.265625 1.171875 -2.15625q0.765625 -0.90625 1.90625 -1.40625q1.140625 -0.515625 2.609375 -0.515625q0.984375 0 1.875 0.203125q0.90625 0.203125 1.625 0.59375l-0.71875 1.40625q-0.578125 -0.28125 -1.25 -0.484375q-0.671875 -0.21875 -1.53125 -0.21875zm7.281479 12.015625l-1.671875 0l0 -14.171875l1.671875 0l0 14.171875zm11.312408 -5.015625q0 1.25 -0.3125 2.21875q-0.296875 0.96875 -0.875 1.625q-0.5625 0.65625 -1.375 1.015625q-0.796875 0.34375 -1.8125 0.34375q-0.9375 0 -1.734375 -0.34375q-0.796875 -0.359375 -1.375 -1.015625q-0.578125 -0.65625 -0.90625 -1.625q-0.3125 -0.96875 -0.3125 -2.21875q0 -1.25 0.296875 -2.203125q0.3125 -0.96875 0.875 -1.625q0.5625 -0.65625 1.375 -1.0q0.828125 -0.34375 1.828125 -0.34375q0.9375 0 1.734375 0.34375q0.796875 0.34375 1.375 1.0q0.578125 0.65625 0.890625 1.625q0.328125 0.953125 0.328125 2.203125zm-7.0 0q0 1.90625 0.625 2.875q0.625 0.953125 2.03125 0.953125q1.40625 0 2.015625 -0.953125q0.625 -0.96875 0.625 -2.875q0 -1.90625 -0.625 -2.84375q-0.625 -0.953125 -2.03125 -0.953125q-1.40625 0 -2.03125 0.953125q-0.609375 0.9375 -0.609375 2.84375zm16.09555 5.015625l-0.25 -1.34375l-0.09375 0q-0.21875 0.390625 -0.53125 0.6875q-0.3125 0.28125 -0.6875 0.46875q-0.375 0.1875 -0.796875 0.28125q-0.421875 0.09375 -0.859375 0.09375q-0.828125 0 -1.453125 -0.203125q-0.625 -0.21875 -1.046875 -0.65625q-0.421875 -0.453125 -0.640625 -1.140625q-0.203125 -0.703125 -0.203125 -1.65625l0 -6.53125l1.65625 0l0 6.4375q0 1.1875 0.484375 1.78125q0.484375 0.59375 1.484375 0.59375q0.734375 0 1.234375 -0.234375q0.515625 -0.25 0.8125 -0.703125q0.3125 -0.46875 0.4375 -1.140625q0.140625 -0.671875 0.140625 -1.546875l0 -5.1875l1.65625 0l0 10.0l-1.34375 0zm10.689178 -1.34375l-0.078125 0q-0.203125 0.3125 -0.46875 0.59375q-0.265625 0.28125 -0.625 0.5q-0.34375 0.203125 -0.78125 0.3125q-0.4375 0.125 -0.984375 0.125q-0.84375 0 -1.546875 -0.328125q-0.703125 -0.328125 -1.203125 -0.984375q-0.5 -0.65625 -0.78125 -1.609375q-0.265625 -0.96875 -0.265625 -2.25q0 -1.28125 0.265625 -2.25q0.28125 -0.96875 0.78125 -1.625q0.5 -0.65625 1.203125 -0.984375q0.703125 -0.34375 1.546875 -0.34375q0.53125 0 0.96875 0.125q0.4375 0.109375 0.78125 0.3125q0.359375 0.203125 0.625 0.46875q0.28125 0.265625 0.484375 0.546875l0.109375 0q-0.03125 -0.296875 -0.046875 -0.578125q-0.03125 -0.25 -0.046875 -0.5q-0.015625 -0.25 -0.015625 -0.390625l0 -3.96875l1.65625 0l0 14.171875l-1.34375 0l-0.234375 -1.34375zm-2.625 0.15625q0.703125 0 1.171875 -0.203125q0.484375 -0.21875 0.78125 -0.640625q0.296875 -0.4375 0.4375 -1.078125q0.140625 -0.640625 0.15625 -1.5l0 -0.375q0 -0.921875 -0.125 -1.625q-0.125 -0.71875 -0.421875 -1.203125q-0.296875 -0.5 -0.796875 -0.75q-0.484375 -0.25 -1.21875 -0.25q-1.21875 0 -1.8125 1.0q-0.578125 0.984375 -0.578125 2.84375q0 1.90625 0.578125 2.84375q0.59375 0.9375 1.828125 0.9375zm14.6188965 -2.375q0 0.890625 -0.3125 1.59375q-0.3125 0.6875 -0.90625 1.171875q-0.578125 0.484375 -1.421875 0.734375q-0.828125 0.25 -1.875 0.25q-1.015625 0 -1.890625 -0.171875q-0.875 -0.15625 -1.46875 -0.46875l0 -1.609375q0.296875 0.140625 0.6875 0.28125q0.40625 0.140625 0.84375 0.25q0.4375 0.109375 0.90625 0.1875q0.46875 0.0625 0.921875 0.0625q1.453125 0 2.140625 -0.546875q0.703125 -0.546875 0.703125 -1.5625q0 -0.5 -0.140625 -0.859375q-0.125 -0.375 -0.453125 -0.671875q-0.328125 -0.3125 -0.890625 -0.59375q-0.546875 -0.28125 -1.40625 -0.625q-0.796875 -0.3125 -1.40625 -0.6875q-0.59375 -0.390625 -0.984375 -0.859375q-0.375 -0.46875 -0.5625 -1.0625q-0.1875 -0.609375 -0.1875 -1.375q0 -0.8125 0.28125 -1.4375q0.296875 -0.625 0.828125 -1.046875q0.53125 -0.4375 1.265625 -0.671875q0.734375 -0.234375 1.609375 -0.234375q1.078125 0 1.9375 0.21875q0.875 0.203125 1.546875 0.515625l-0.609375 1.421875q-0.59375 -0.265625 -1.34375 -0.453125q-0.75 -0.203125 -1.546875 -0.203125q-1.109375 0 -1.71875 0.515625q-0.609375 0.515625 -0.609375 1.390625q0 0.515625 0.125 0.890625q0.140625 0.375 0.453125 0.6875q0.328125 0.3125 0.84375 0.578125q0.53125 0.265625 1.296875 0.5625q0.828125 0.328125 1.453125 0.671875q0.625 0.34375 1.046875 0.78125q0.421875 0.4375 0.625 1.015625q0.21875 0.578125 0.21875 1.359375zm13.542786 -3.109375q0 1.1875 -0.21875 2.21875q-0.21875 1.03125 -0.65625 1.859375q-0.4375 0.8125 -1.09375 1.421875q-0.640625 0.59375 -1.484375 0.9375q0.390625 0.859375 1.015625 1.515625q0.625 0.65625 1.453125 1.203125l-1.109375 1.28125q-0.9375 -0.65625 -1.734375 -1.5625q-0.78125 -0.90625 -1.25 -2.0625q-0.15625 0.015625 -0.34375 0.03125q-0.171875 0.015625 -0.34375 0.015625q-1.484375 0 -2.578125 -0.484375q-1.078125 -0.5 -1.796875 -1.40625q-0.71875 -0.90625 -1.0625 -2.171875q-0.34375 -1.265625 -0.34375 -2.828125q0 -1.546875 0.34375 -2.796875q0.34375 -1.265625 1.0625 -2.15625q0.71875 -0.890625 1.8125 -1.375q1.09375 -0.5 2.578125 -0.5q1.421875 0 2.484375 0.5q1.078125 0.484375 1.796875 1.375q0.734375 0.890625 1.09375 2.15625q0.375 1.265625 0.375 2.828125zm-9.75 0q0 1.25 0.234375 2.25q0.234375 0.984375 0.71875 1.6875q0.484375 0.6875 1.234375 1.0625q0.765625 0.375 1.796875 0.375q1.046875 0 1.796875 -0.375q0.75 -0.375 1.234375 -1.0625q0.484375 -0.703125 0.703125 -1.6875q0.234375 -1.0 0.234375 -2.25q0 -1.265625 -0.234375 -2.25q-0.21875 -1.0 -0.703125 -1.6875q-0.484375 -0.6875 -1.234375 -1.046875q-0.734375 -0.375 -1.78125 -0.375q-1.03125 0 -1.796875 0.375q-0.75 0.359375 -1.25 1.046875q-0.484375 0.6875 -0.71875 1.6875q-0.234375 0.984375 -0.234375 2.25zm12.703217 6.671875l0 -13.3125l1.6875 0l0 11.796875l5.234375 0l0 1.515625l-6.921875 0z" fill-rule="nonzero"/><path fill="#000000" fill-opacity="0.0" d="m282.86615 313.0525l0 84.37796" fill-rule="evenodd"/><path stroke="#b7b7b7" stroke-width="1.0" stroke-linejoin="round" stroke-linecap="butt" d="m282.86615 313.0525l0 84.37796" fill-rule="evenodd"/><path fill="#000000" fill-opacity="0.0" d="m351.24408 92.8294l87.55908 91.77952" fill-rule="evenodd"/><path stroke="#b7b7b7" stroke-width="1.0" stroke-linejoin="round" stroke-linecap="butt" d="m351.24408 92.8294l87.55908 91.77952" fill-rule="evenodd"/><path fill="#efefef" d="m438.80316 147.93176l136.75592 0l0 73.354324l-136.75592 0z" fill-rule="evenodd"/><path stroke="#cccccc" stroke-width="1.0" stroke-linejoin="round" stroke-linecap="butt" d="m438.80316 147.93176l136.75592 0l0 73.354324l-136.75592 0z" fill-rule="evenodd"/><path fill="#434343" d="m457.2045 182.77892l-2.234375 0l0 8.75l-1.671875 0l0 -8.75l-1.765625 0l0 -0.6875l1.765625 -0.625l0 -0.875q0 -0.96875 0.203125 -1.609375q0.203125 -0.640625 0.59375 -1.015625q0.390625 -0.390625 0.953125 -0.546875q0.5625 -0.171875 1.28125 -0.171875q0.53125 0 0.984375 0.109375q0.453125 0.109375 0.796875 0.234375l-0.421875 1.28125q-0.28125 -0.09375 -0.625 -0.171875q-0.328125 -0.078125 -0.6875 -0.078125q-0.359375 0 -0.625 0.09375q-0.265625 0.078125 -0.4375 0.296875q-0.171875 0.21875 -0.265625 0.59375q-0.078125 0.375 -0.078125 0.96875l0 0.953125l2.234375 0l0 1.25zm3.452301 8.75l-1.671875 0l0 -10.0l1.671875 0l0 10.0zm-1.796875 -12.703125q0 -0.546875 0.28125 -0.796875q0.28125 -0.25 0.6875 -0.25q0.203125 0 0.375 0.0625q0.1875 0.0625 0.3125 0.1875q0.140625 0.125 0.203125 0.328125q0.078125 0.1875 0.078125 0.46875q0 0.53125 -0.28125 0.796875q-0.28125 0.25 -0.6875 0.25q-0.40625 0 -0.6875 -0.25q-0.28125 -0.265625 -0.28125 -0.796875zm9.281158 2.515625q0.265625 0 0.59375 0.03125q0.328125 0.015625 0.5625 0.0625l-0.21875 1.53125q-0.25 -0.046875 -0.515625 -0.078125q-0.265625 -0.03125 -0.5 -0.03125q-0.578125 0 -1.0625 0.234375q-0.46875 0.234375 -0.8125 0.671875q-0.34375 0.421875 -0.53125 1.03125q-0.171875 0.609375 -0.171875 1.34375l0 5.390625l-1.671875 0l0 -10.0l1.359375 0l0.203125 1.828125l0.0625 0q0.234375 -0.390625 0.484375 -0.75q0.265625 -0.375 0.578125 -0.640625q0.328125 -0.28125 0.734375 -0.453125q0.40625 -0.171875 0.90625 -0.171875zm7.0674744 10.375q-1.0 0 -1.828125 -0.328125q-0.828125 -0.34375 -1.421875 -0.984375q-0.59375 -0.65625 -0.921875 -1.609375q-0.328125 -0.96875 -0.328125 -2.1875q0 -1.25 0.296875 -2.21875q0.296875 -0.96875 0.84375 -1.640625q0.546875 -0.6875 1.3125 -1.046875q0.765625 -0.359375 1.6875 -0.359375q0.890625 0 1.609375 0.328125q0.71875 0.328125 1.21875 0.921875q0.515625 0.578125 0.78125 1.40625q0.265625 0.8125 0.265625 1.8125l0 1.03125l-6.3125 0q0.046875 1.765625 0.75 2.59375q0.703125 0.828125 2.078125 0.828125q0.453125 0 0.84375 -0.046875q0.40625 -0.046875 0.765625 -0.125q0.375 -0.09375 0.71875 -0.21875q0.359375 -0.140625 0.703125 -0.296875l0 1.46875q-0.359375 0.171875 -0.71875 0.3125q-0.34375 0.125 -0.71875 0.203125q-0.359375 0.078125 -0.765625 0.109375q-0.390625 0.046875 -0.859375 0.046875zm-0.40625 -9.0q-1.03125 0 -1.640625 0.71875q-0.609375 0.703125 -0.703125 2.0625l4.484375 0q0 -0.625 -0.125 -1.125q-0.125 -0.515625 -0.390625 -0.875q-0.25 -0.375 -0.65625 -0.578125q-0.40625 -0.203125 -0.96875 -0.203125zm10.968384 -1.375q0.84375 0 1.546875 0.328125q0.703125 0.328125 1.203125 0.984375q0.5 0.65625 0.765625 1.625q0.28125 0.953125 0.28125 2.234375q0 1.28125 -0.28125 2.25q-0.265625 0.96875 -0.765625 1.625q-0.5 0.65625 -1.203125 1.0q-0.703125 0.328125 -1.546875 0.328125q-0.546875 0 -0.984375 -0.125q-0.4375 -0.109375 -0.796875 -0.3125q-0.34375 -0.203125 -0.609375 -0.453125q-0.265625 -0.265625 -0.46875 -0.5625l-0.109375 0l-0.34375 1.265625l-1.21875 0l0 -14.171875l1.671875 0l0 3.421875q0 0.3125 -0.015625 0.6875q-0.015625 0.359375 -0.03125 0.65625q-0.015625 0.375 -0.03125 0.71875l0.078125 0q0.203125 -0.328125 0.46875 -0.59375q0.265625 -0.28125 0.609375 -0.46875q0.359375 -0.203125 0.796875 -0.3125q0.4375 -0.125 0.984375 -0.125zm-0.328125 1.375q-0.71875 0 -1.21875 0.234375q-0.484375 0.234375 -0.78125 0.71875q-0.296875 0.46875 -0.421875 1.1875q-0.109375 0.703125 -0.109375 1.65625q0 0.921875 0.109375 1.640625q0.125 0.703125 0.421875 1.203125q0.296875 0.484375 0.78125 0.734375q0.5 0.25 1.234375 0.25q1.234375 0 1.8125 -0.984375q0.578125 -1.0 0.578125 -2.859375q0 -1.90625 -0.578125 -2.84375q-0.578125 -0.9375 -1.828125 -0.9375zm12.3688965 8.8125l-0.328125 -1.390625l-0.078125 0q-0.296875 0.421875 -0.609375 0.71875q-0.296875 0.296875 -0.65625 0.484375q-0.34375 0.1875 -0.78125 0.28125q-0.4375 0.09375 -1.015625 0.09375q-0.625 0 -1.15625 -0.1875q-0.53125 -0.171875 -0.921875 -0.53125q-0.375 -0.375 -0.59375 -0.9375q-0.21875 -0.5625 -0.21875 -1.328125q0 -1.5 1.046875 -2.296875q1.046875 -0.796875 3.203125 -0.875l1.671875 -0.0625l0 -0.625q0 -0.609375 -0.140625 -1.015625q-0.125 -0.421875 -0.375 -0.671875q-0.25 -0.25 -0.625 -0.359375q-0.359375 -0.109375 -0.828125 -0.109375q-0.765625 0 -1.421875 0.21875q-0.640625 0.21875 -1.234375 0.53125l-0.59375 -1.25q0.671875 -0.359375 1.5 -0.609375q0.84375 -0.265625 1.75 -0.265625q0.921875 0 1.59375 0.1875q0.6875 0.1875 1.125 0.59375q0.453125 0.40625 0.671875 1.03125q0.21875 0.625 0.21875 1.53125l0 6.84375l-1.203125 0zm-3.03125 -1.15625q0.546875 0 1.015625 -0.171875q0.484375 -0.171875 0.828125 -0.515625q0.34375 -0.359375 0.53125 -0.890625q0.203125 -0.53125 0.203125 -1.25l0 -0.90625l-1.296875 0.0625q-0.828125 0.03125 -1.390625 0.1875q-0.546875 0.140625 -0.875 0.40625q-0.328125 0.25 -0.484375 0.625q-0.140625 0.359375 -0.140625 0.828125q0 0.84375 0.4375 1.234375q0.453125 0.390625 1.171875 0.390625zm13.277008 -1.578125q0 0.71875 -0.265625 1.265625q-0.25 0.546875 -0.75 0.921875q-0.5 0.359375 -1.203125 0.546875q-0.703125 0.1875 -1.578125 0.1875q-0.984375 0 -1.703125 -0.171875q-0.703125 -0.15625 -1.25 -0.46875l0 -1.5q0.296875 0.140625 0.640625 0.28125q0.34375 0.140625 0.71875 0.25q0.390625 0.109375 0.796875 0.1875q0.40625 0.0625 0.796875 0.0625q0.59375 0 1.0 -0.09375q0.421875 -0.109375 0.6875 -0.296875q0.265625 -0.1875 0.375 -0.453125q0.125 -0.265625 0.125 -0.59375q0 -0.28125 -0.09375 -0.515625q-0.09375 -0.234375 -0.34375 -0.453125q-0.234375 -0.21875 -0.65625 -0.4375q-0.40625 -0.234375 -1.0625 -0.515625q-0.65625 -0.28125 -1.1875 -0.546875q-0.515625 -0.28125 -0.890625 -0.625q-0.359375 -0.34375 -0.5625 -0.78125q-0.1875 -0.4375 -0.1875 -1.046875q0 -0.640625 0.25 -1.140625q0.25 -0.5 0.703125 -0.828125q0.453125 -0.34375 1.09375 -0.515625q0.640625 -0.171875 1.421875 -0.171875q0.875 0 1.609375 0.203125q0.734375 0.1875 1.390625 0.5l-0.5625 1.328125q-0.59375 -0.265625 -1.21875 -0.453125q-0.625 -0.203125 -1.28125 -0.203125q-0.921875 0 -1.375 0.3125q-0.4375 0.296875 -0.4375 0.859375q0 0.328125 0.09375 0.5625q0.109375 0.234375 0.359375 0.453125q0.265625 0.203125 0.6875 0.421875q0.4375 0.203125 1.0625 0.46875q0.65625 0.28125 1.171875 0.5625q0.515625 0.265625 0.875 0.609375q0.375 0.328125 0.5625 0.765625q0.1875 0.4375 0.1875 1.0625zm6.385956 2.921875q-1.0 0 -1.828125 -0.328125q-0.8281555 -0.34375 -1.4219055 -0.984375q-0.59375 -0.65625 -0.921875 -1.609375q-0.328125 -0.96875 -0.328125 -2.1875q0 -1.25 0.296875 -2.21875q0.296875 -0.96875 0.84375 -1.640625q0.546875 -0.6875 1.3125305 -1.046875q0.765625 -0.359375 1.6875 -0.359375q0.890625 0 1.609375 0.328125q0.71875 0.328125 1.21875 0.921875q0.515625 0.578125 0.78125 1.40625q0.265625 0.8125 0.265625 1.8125l0 1.03125l-6.3125305 0q0.046875 1.765625 0.7500305 2.59375q0.703125 0.828125 2.078125 0.828125q0.453125 0 0.84375 -0.046875q0.40625 -0.046875 0.765625 -0.125q0.375 -0.09375 0.71875 -0.21875q0.359375 -0.140625 0.703125 -0.296875l0 1.46875q-0.359375 0.171875 -0.71875 0.3125q-0.34375 0.125 -0.71875 0.203125q-0.359375 0.078125 -0.765625 0.109375q-0.390625 0.046875 -0.859375 0.046875zm-0.40625 -9.0q-1.03125 0 -1.640625 0.71875q-0.6094055 0.703125 -0.7031555 2.0625l4.4844055 0q0 -0.625 -0.125 -1.125q-0.125 -0.515625 -0.390625 -0.875q-0.25 -0.375 -0.65625 -0.578125q-0.40625 -0.203125 -0.96875 -0.203125zm5.609009 4.578125l0 -1.53125l4.515625 0l0 1.53125l-4.515625 0zm12.471863 4.234375l-0.328125 -1.390625l-0.078125 0q-0.296875 0.421875 -0.609375 0.71875q-0.296875 0.296875 -0.65625 0.484375q-0.34375 0.1875 -0.78125 0.28125q-0.4375 0.09375 -1.015625 0.09375q-0.625 0 -1.15625 -0.1875q-0.53125 -0.171875 -0.921875 -0.53125q-0.375 -0.375 -0.59375 -0.9375q-0.21875 -0.5625 -0.21875 -1.328125q0 -1.5 1.046875 -2.296875q1.046875 -0.796875 3.203125 -0.875l1.671875 -0.0625l0 -0.625q0 -0.609375 -0.140625 -1.015625q-0.125 -0.421875 -0.375 -0.671875q-0.25 -0.25 -0.625 -0.359375q-0.359375 -0.109375 -0.828125 -0.109375q-0.765625 0 -1.421875 0.21875q-0.640625 0.21875 -1.234375 0.53125l-0.59375 -1.25q0.671875 -0.359375 1.5 -0.609375q0.84375 -0.265625 1.75 -0.265625q0.921875 0 1.59375 0.1875q0.6875 0.1875 1.125 0.59375q0.453125 0.40625 0.671875 1.03125q0.21875 0.625 0.21875 1.53125l0 6.84375l-1.203125 0zm-3.03125 -1.15625q0.546875 0 1.015625 -0.171875q0.484375 -0.171875 0.828125 -0.515625q0.34375 -0.359375 0.53125 -0.890625q0.203125 -0.53125 0.203125 -1.25l0 -0.90625l-1.296875 0.0625q-0.828125 0.03125 -1.390625 0.1875q-0.546875 0.140625 -0.875 0.40625q-0.328125 0.25 -0.484375 0.625q-0.140625 0.359375 -0.140625 0.828125q0 0.84375 0.4375 1.234375q0.453125 0.390625 1.171875 0.390625zm13.777039 1.15625l-0.25 -1.34375l-0.09375 0q-0.21875 0.390625 -0.53125 0.6875q-0.3125 0.28125 -0.6875 0.46875q-0.375 0.1875 -0.796875 0.28125q-0.421875 0.09375 -0.859375 0.09375q-0.828125 0 -1.453125 -0.203125q-0.625 -0.21875 -1.046875 -0.65625q-0.421875 -0.453125 -0.640625 -1.140625q-0.203125 -0.703125 -0.203125 -1.65625l0 -6.53125l1.65625 0l0 6.4375q0 1.1875 0.484375 1.78125q0.484375 0.59375 1.484375 0.59375q0.734375 0 1.234375 -0.234375q0.515625 -0.25 0.8125 -0.703125q0.3125 -0.46875 0.4375 -1.140625q0.140625 -0.671875 0.140625 -1.546875l0 -5.1875l1.65625 0l0 10.0l-1.34375 0zm7.532959 -1.171875q0.15625 0 0.359375 -0.015625q0.21875 -0.03125 0.40625 -0.046875q0.1875 -0.03125 0.34375 -0.0625q0.171875 -0.046875 0.25 -0.0625l0 1.25q-0.125 0.0625 -0.3125 0.109375q-0.171875 0.046875 -0.390625 0.09375q-0.21875 0.046875 -0.453125 0.0625q-0.234375 0.03125 -0.46875 0.03125q-0.5625 0 -1.046875 -0.15625q-0.484375 -0.140625 -0.84375 -0.484375q-0.34375 -0.359375 -0.546875 -0.96875q-0.1875 -0.609375 -0.1875 -1.53125l0 -5.796875l-1.421875 0l0 -0.734375l1.421875 -0.71875l0.703125 -2.09375l0.953125 0l0 2.296875l2.515625 0l0 1.25l-2.515625 0l0 5.796875q0 0.890625 0.28125 1.34375q0.296875 0.4375 0.953125 0.4375zm9.54071 1.171875l0 -6.4375q0 -1.1875 -0.484375 -1.78125q-0.46875 -0.59375 -1.484375 -0.59375q-0.734375 0 -1.234375 0.25q-0.5 0.234375 -0.8125 0.703125q-0.3125 0.453125 -0.4375 1.125q-0.125 0.671875 -0.125 1.546875l0 5.1875l-1.671875 0l0 -14.171875l1.671875 0l0 4.203125l-0.078125 1.3125l0.09375 0q0.21875 -0.390625 0.53125 -0.671875q0.328125 -0.296875 0.6875 -0.484375q0.375 -0.1875 0.796875 -0.28125q0.421875 -0.09375 0.859375 -0.09375q1.671875 0 2.5 0.875q0.84375 0.875 0.84375 2.78125l0 6.53125l-1.65625 0z" fill-rule="nonzero"/><path fill="#000000" fill-opacity="0.0" d="m351.24408 276.37534l87.55908 -91.77954" fill-rule="evenodd"/><path stroke="#b7b7b7" stroke-width="1.0" stroke-linejoin="round" stroke-linecap="butt" d="m351.24408 276.37534l87.55908 -91.77954" fill-rule="evenodd"/><path fill="#efefef" d="m33.96063 239.69817l136.7559 0l0 73.354324l-136.7559 0z" fill-rule="evenodd"/><path stroke="#cccccc" stroke-width="1.0" stroke-linejoin="round" stroke-linecap="butt" d="m33.96063 239.69817l136.7559 0l0 73.354324l-136.7559 0z" fill-rule="evenodd"/><path fill="#434343" d="m75.26367 261.29532l0 -6.4374847q0 -1.1875 -0.453125 -1.78125q-0.453125 -0.59375 -1.40625 -0.59375q-0.671875 0 -1.140625 0.21875q-0.453125 0.21875 -0.75 0.640625q-0.296875 0.40625 -0.4375 1.015625q-0.140625 0.609375 -0.140625 1.421875l0 5.5156097l-1.671875 0l0 -6.4374847q0 -1.1875 -0.453125 -1.78125q-0.4375 -0.59375 -1.390625 -0.59375q-0.703125 0 -1.1875 0.25q-0.46875 0.234375 -0.765625 0.703125q-0.28125 0.453125 -0.40625 1.125q-0.109375 0.671875 -0.109375 1.5468597l0 5.1875l-1.6718788 0l0 -9.999985l1.3593788 0l0.234375 1.34375l0.09375 0q0.21875 -0.390625 0.515625 -0.671875q0.296875 -0.296875 0.65625 -0.484375q0.359375 -0.1875 0.765625 -0.28125q0.40625 -0.09375 0.828125 -0.09375q1.09375 0 1.8125 0.40625q0.734375 0.40625 1.078125 1.25l0.0625 0q0.25 -0.421875 0.578125 -0.734375q0.328125 -0.3125 0.71875 -0.515625q0.40625 -0.203125 0.84375 -0.296875q0.4375 -0.109375 0.890625 -0.109375q1.59375 0 2.390625 0.875q0.8125 0.875 0.8125 2.78125l0 6.5312347l-1.65625 0zm6.403427 0l-1.671875 0l0 -9.999985l1.671875 0l0 9.999985zm-1.796875 -12.70311q0 -0.546875 0.28125 -0.796875q0.28125 -0.25 0.6875 -0.25q0.203125 0 0.375 0.0625q0.1875 0.0625 0.3125 0.1875q0.140625 0.125 0.203125 0.328125q0.078125 0.1875 0.078125 0.46875q0 0.53125 -0.28125 0.796875q-0.28125 0.25 -0.6875 0.25q-0.40625 0 -0.6875 -0.25q-0.28125 -0.265625 -0.28125 -0.796875zm12.671783 2.703125l0 1.03125l-1.796875 0.234375q0.25 0.328125 0.421875 0.828125q0.171875 0.484375 0.171875 1.125q0 0.6875 -0.21875 1.28125q-0.203125 0.57810974 -0.640625 1.0156097q-0.421875 0.421875 -1.0625 0.671875q-0.640625 0.234375 -1.484375 0.234375q-0.203125 0 -0.40625 0q-0.203125 -0.015625 -0.328125 -0.03125q-0.15625 0.078125 -0.3125 0.203125q-0.140625 0.109375 -0.265625 0.265625q-0.125 0.140625 -0.203125 0.328125q-0.078125 0.171875 -0.078125 0.390625q0 0.25 0.109375 0.40625q0.109375 0.140625 0.296875 0.21875q0.1875 0.078125 0.4375 0.109375q0.265625 0.03125 0.546875 0.03125l1.59375 0q0.859375 0 1.4375 0.21875q0.578125 0.203125 0.953125 0.578125q0.375 0.359375 0.53125 0.859375q0.171875 0.484375 0.171875 1.046875q0 0.796875 -0.296875 1.4375q-0.296875 0.640625 -0.921875 1.078125q-0.609375 0.453125 -1.546875 0.6875q-0.921875 0.234375 -2.1875 0.234375q-0.96875 0 -1.703125 -0.203125q-0.734375 -0.1875 -1.21875 -0.546875q-0.484375 -0.359375 -0.71875 -0.875q-0.234375 -0.515625 -0.234375 -1.171875q0 -0.546875 0.171875 -0.96875q0.171875 -0.40625 0.46875 -0.703125q0.3125 -0.296875 0.703125 -0.484375q0.40625 -0.203125 0.828125 -0.296875q-0.390625 -0.171875 -0.640625 -0.546875q-0.234375 -0.375 -0.234375 -0.859375q0 -0.546875 0.28125 -0.953125q0.296875 -0.40625 0.921875 -0.796875q-0.390625 -0.15625 -0.71875 -0.4375q-0.3125 -0.296875 -0.546875 -0.65625q-0.21875 -0.37498474 -0.34375 -0.81248474q-0.109375 -0.4375 -0.109375 -0.90625q0 -0.8125 0.21875 -1.4375q0.234375 -0.640625 0.671875 -1.078125q0.453125 -0.453125 1.109375 -0.6875q0.671875 -0.25 1.5625 -0.25q0.328125 0 0.6875 0.0625q0.359375 0.046875 0.609375 0.125l3.3125 0zm-7.390625 11.64061q0 0.34375 0.109375 0.625q0.125 0.296875 0.390625 0.5q0.265625 0.21875 0.703125 0.328125q0.453125 0.125 1.109375 0.125q1.6875 0 2.53125 -0.53125q0.84375 -0.515625 0.84375 -1.5q0 -0.40625 -0.109375 -0.671875q-0.109375 -0.265625 -0.359375 -0.421875q-0.25 -0.140625 -0.65625 -0.1875q-0.40625 -0.0625 -1.0 -0.0625l-1.609375 0q-0.3125 0 -0.671875 0.078125q-0.34375 0.0625 -0.625 0.25q-0.28125 0.203125 -0.46875 0.546875q-0.1875 0.359375 -0.1875 0.921875zm0.828125 -8.42186q0 1.046875 0.484375 1.5624847q0.5 0.5 1.40625 0.5q0.90625 0 1.375 -0.5q0.484375 -0.51560974 0.484375 -1.5937347q0 -1.125 -0.484375 -1.640625q-0.484375 -0.53125 -1.390625 -0.53125q-0.90625 0 -1.390625 0.546875q-0.484375 0.546875 -0.484375 1.65625zm12.837051 -3.40625q0.265625 0 0.59375 0.03125q0.328125 0.015625 0.5625 0.0625l-0.21875 1.53125q-0.25 -0.046875 -0.515625 -0.078125q-0.265625 -0.03125 -0.5 -0.03125q-0.578125 0 -1.0625 0.234375q-0.46875 0.234375 -0.8125 0.671875q-0.34375 0.421875 -0.53125 1.03125q-0.171875 0.609375 -0.171875 1.34375l0 5.3906097l-1.671875 0l0 -9.999985l1.359375 0l0.203125 1.828125l0.0625 0q0.234375 -0.390625 0.484375 -0.75q0.265625 -0.375 0.578125 -0.640625q0.328125 -0.28125 0.734375 -0.453125q0.40625 -0.171875 0.90625 -0.171875zm8.572662 10.187485l-0.328125 -1.390625l-0.078125 0q-0.296875 0.421875 -0.609375 0.71875q-0.296875 0.296875 -0.65625 0.484375q-0.34375 0.1875 -0.78125 0.28125q-0.4375 0.09375 -1.015625 0.09375q-0.625 0 -1.15625 -0.1875q-0.53125 -0.171875 -0.921875 -0.53125q-0.375 -0.375 -0.59375 -0.9375q-0.21875 -0.5625 -0.21875 -1.328125q0 -1.5 1.046875 -2.296875q1.046875 -0.79685974 3.203125 -0.87498474l1.671875 -0.0625l0 -0.625q0 -0.609375 -0.140625 -1.015625q-0.125 -0.421875 -0.375 -0.671875q-0.25 -0.25 -0.625 -0.359375q-0.359375 -0.109375 -0.828125 -0.109375q-0.765625 0 -1.421875 0.21875q-0.640625 0.21875 -1.234375 0.53125l-0.59375 -1.25q0.671875 -0.359375 1.5 -0.609375q0.84375 -0.265625 1.75 -0.265625q0.921875 0 1.59375 0.1875q0.6875 0.1875 1.125 0.59375q0.453125 0.40625 0.671875 1.03125q0.21875 0.625 0.21875 1.53125l0 6.8437347l-1.203125 0zm-3.03125 -1.15625q0.546875 0 1.015625 -0.171875q0.484375 -0.171875 0.828125 -0.515625q0.34375 -0.359375 0.53125 -0.890625q0.203125 -0.53125 0.203125 -1.25l0 -0.90625l-1.296875 0.0625q-0.828125 0.03125 -1.390625 0.1875q-0.546875 0.140625 -0.875 0.40625q-0.328125 0.25 -0.484375 0.625q-0.140625 0.359375 -0.140625 0.828125q0 0.84375 0.4375 1.234375q0.453125 0.390625 1.171875 0.390625zm10.323898 -0.015625q0.15625 0 0.359375 -0.015625q0.21875 -0.03125 0.40625 -0.046875q0.1875 -0.03125 0.34375 -0.0625q0.171875 -0.046875 0.25 -0.0625l0 1.25q-0.125 0.0625 -0.3125 0.109375q-0.171875 0.046875 -0.390625 0.09375q-0.21875 0.046875 -0.453125 0.0625q-0.234375 0.03125 -0.46875 0.03125q-0.5625 0 -1.046875 -0.15625q-0.484375 -0.140625 -0.84375 -0.484375q-0.34375 -0.359375 -0.546875 -0.96875q-0.1875 -0.609375 -0.1875 -1.53125l0 -5.7968597l-1.421875 0l0 -0.734375l1.421875 -0.71875l0.703125 -2.09375l0.953125 0l0 2.296875l2.515625 0l0 1.25l-2.515625 0l0 5.7968597q0 0.890625 0.28125 1.34375q0.296875 0.4375 0.953125 0.4375zm4.962616 1.171875l-1.671875 0l0 -9.999985l1.671875 0l0 9.999985zm-1.796875 -12.70311q0 -0.546875 0.28125 -0.796875q0.28125 -0.25 0.6875 -0.25q0.203125 0 0.375 0.0625q0.1875 0.0625 0.3125 0.1875q0.140625 0.125 0.203125 0.328125q0.078125 0.1875 0.078125 0.46875q0 0.53125 -0.28125 0.796875q-0.28125 0.25 -0.6875 0.25q-0.40625 0 -0.6875 -0.25q-0.28125 -0.265625 -0.28125 -0.796875zm13.109283 7.6874847q0 1.25 -0.3125 2.21875q-0.296875 0.96875 -0.875 1.625q-0.5625 0.65625 -1.375 1.015625q-0.796875 0.34375 -1.8125 0.34375q-0.9375 0 -1.734375 -0.34375q-0.796875 -0.359375 -1.375 -1.015625q-0.578125 -0.65625 -0.90625 -1.625q-0.3125 -0.96875 -0.3125 -2.21875q0 -1.2499847 0.296875 -2.2031097q0.3125 -0.96875 0.875 -1.625q0.5625 -0.65625 1.375 -1.0q0.828125 -0.34375 1.828125 -0.34375q0.9375 0 1.734375 0.34375q0.796875 0.34375 1.375 1.0q0.578125 0.65625 0.890625 1.625q0.328125 0.953125 0.328125 2.2031097zm-7.0 0q0 1.90625 0.625 2.875q0.625 0.953125 2.03125 0.953125q1.40625 0 2.015625 -0.953125q0.625 -0.96875 0.625 -2.875q0 -1.9062347 -0.625 -2.8437347q-0.625 -0.953125 -2.03125 -0.953125q-1.40625 0 -2.03125 0.953125q-0.609375 0.9375 -0.609375 2.8437347zm15.861176 5.015625l0 -6.4374847q0 -1.1875 -0.484375 -1.78125q-0.46875 -0.59375 -1.484375 -0.59375q-0.734375 0 -1.234375 0.25q-0.5 0.234375 -0.8125 0.703125q-0.3125 0.453125 -0.4375 1.125q-0.125 0.671875 -0.125 1.5468597l0 5.1875l-1.671875 0l0 -9.999985l1.359375 0l0.234375 1.34375l0.09375 0q0.21875 -0.390625 0.53125 -0.671875q0.328125 -0.296875 0.6875 -0.484375q0.375 -0.1875 0.796875 -0.28125q0.421875 -0.09375 0.859375 -0.09375q1.671875 0 2.5 0.875q0.84375 0.875 0.84375 2.78125l0 6.5312347l-1.65625 0z" fill-rule="nonzero"/><path fill="#434343" d="m77.74624 273.10782q0.265625 0 0.59375 0.03125q0.328125 0.015625 0.5625 0.0625l-0.21875 1.53125q-0.25 -0.046875 -0.515625 -0.078125q-0.265625 -0.03125 -0.5 -0.03125q-0.578125 0 -1.0625 0.234375q-0.46875 0.234375 -0.8125 0.671875q-0.34375 0.421875 -0.53125 1.03125q-0.171875 0.609375 -0.171875 1.34375l0 5.390625l-1.671875 0l0 -10.0l1.359375 0l0.203125 1.828125l0.0625 0q0.234375 -0.390625 0.484375 -0.75q0.265625 -0.375 0.578125 -0.640625q0.328125 -0.28125 0.734375 -0.453125q0.40625 -0.171875 0.90625 -0.171875zm11.270584 5.171875q0 1.25 -0.3125 2.21875q-0.296875 0.96875 -0.875 1.625q-0.5625 0.65625 -1.375 1.015625q-0.796875 0.34375 -1.8125 0.34375q-0.9375 0 -1.734375 -0.34375q-0.796875 -0.359375 -1.375 -1.015625q-0.578125 -0.65625 -0.90625 -1.625q-0.3125 -0.96875 -0.3125 -2.21875q0 -1.25 0.296875 -2.203125q0.3125 -0.96875 0.875 -1.625q0.5625 -0.65625 1.375 -1.0q0.828125 -0.34375 1.828125 -0.34375q0.9375 0 1.734375 0.34375q0.796875 0.34375 1.375 1.0q0.578125 0.65625 0.890625 1.625q0.328125 0.953125 0.328125 2.203125zm-7.0 0q0 1.90625 0.625 2.875q0.625 0.953125 2.03125 0.953125q1.40625 0 2.015625 -0.953125q0.625 -0.96875 0.625 -2.875q0 -1.90625 -0.625 -2.84375q-0.625 -0.953125 -2.03125 -0.953125q-1.40625 0 -2.03125 0.953125q-0.609375 0.9375 -0.609375 2.84375zm16.09555 5.015625l-0.25 -1.34375l-0.09375 0q-0.21875 0.390625 -0.53125 0.6875q-0.3125 0.28125 -0.6875 0.46875q-0.375 0.1875 -0.796875 0.28125q-0.421875 0.09375 -0.859375 0.09375q-0.828125 0 -1.453125 -0.203125q-0.625 -0.21875 -1.046875 -0.65625q-0.421875 -0.453125 -0.640625 -1.140625q-0.203125 -0.703125 -0.203125 -1.65625l0 -6.53125l1.65625 0l0 6.4375q0 1.1875 0.484375 1.78125q0.484375 0.59375 1.484375 0.59375q0.734375 0 1.234375 -0.234375q0.515625 -0.25 0.8125 -0.703125q0.3125 -0.46875 0.4375 -1.140625q0.140625 -0.671875 0.140625 -1.546875l0 -5.1875l1.65625 0l0 10.0l-1.34375 0zm7.5329285 -1.171875q0.15625 0 0.359375 -0.015625q0.21875 -0.03125 0.40625 -0.046875q0.1875 -0.03125 0.34375 -0.0625q0.171875 -0.046875 0.25 -0.0625l0 1.25q-0.125 0.0625 -0.3125 0.109375q-0.171875 0.046875 -0.390625 0.09375q-0.21875 0.046875 -0.453125 0.0625q-0.234375 0.03125 -0.46875 0.03125q-0.5625 0 -1.046875 -0.15625q-0.484375 -0.140625 -0.84375 -0.484375q-0.34375 -0.359375 -0.546875 -0.96875q-0.1875 -0.609375 -0.1875 -1.53125l0 -5.796875l-1.421875 0l0 -0.734375l1.421875 -0.71875l0.703125 -2.09375l0.953125 0l0 2.296875l2.515625 0l0 1.25l-2.515625 0l0 5.796875q0 0.890625 0.28125 1.34375q0.296875 0.4375 0.953125 0.4375zm4.962616 1.171875l-1.671875 0l0 -10.0l1.671875 0l0 10.0zm-1.796875 -12.703125q0 -0.546875 0.28125 -0.796875q0.28125 -0.25 0.6875 -0.25q0.203125 0 0.375 0.0625q0.1875 0.0625 0.3125 0.1875q0.140625 0.125 0.203125 0.328125q0.078125 0.1875 0.078125 0.46875q0 0.53125 -0.28125 0.796875q-0.28125 0.25 -0.6875 0.25q-0.40625 0 -0.6875 -0.25q-0.28125 -0.265625 -0.28125 -0.796875zm11.203033 12.703125l0 -6.4375q0 -1.1875 -0.484375 -1.78125q-0.46875 -0.59375 -1.484375 -0.59375q-0.734375 0 -1.234375 0.25q-0.5 0.234375 -0.8125 0.703125q-0.3125 0.453125 -0.4375 1.125q-0.125 0.671875 -0.125 1.546875l0 5.1875l-1.671875 0l0 -10.0l1.359375 0l0.234375 1.34375l0.09375 0q0.21875 -0.390625 0.53125 -0.671875q0.328125 -0.296875 0.6875 -0.484375q0.375 -0.1875 0.796875 -0.28125q0.421875 -0.09375 0.859375 -0.09375q1.671875 0 2.5 0.875q0.84375 0.875 0.84375 2.78125l0 6.53125l-1.65625 0zm12.454796 -10.0l0 1.03125l-1.796875 0.234375q0.25 0.328125 0.421875 0.828125q0.171875 0.484375 0.171875 1.125q0 0.6875 -0.21875 1.28125q-0.203125 0.578125 -0.640625 1.015625q-0.421875 0.421875 -1.0625 0.671875q-0.640625 0.234375 -1.4843674 0.234375q-0.203125 0 -0.40625 0q-0.203125 -0.015625 -0.328125 -0.03125q-0.15625 0.078125 -0.3125 0.203125q-0.140625 0.109375 -0.265625 0.265625q-0.125 0.140625 -0.203125 0.328125q-0.078125 0.171875 -0.078125 0.390625q0 0.25 0.109375 0.40625q0.109375 0.140625 0.296875 0.21875q0.1875 0.078125 0.4375 0.109375q0.265625 0.03125 0.546875 0.03125l1.5937424 0q0.859375 0 1.4375 0.21875q0.578125 0.203125 0.953125 0.578125q0.375 0.359375 0.53125 0.859375q0.171875 0.484375 0.171875 1.046875q0 0.796875 -0.296875 1.4375q-0.296875 0.640625 -0.921875 1.078125q-0.609375 0.453125 -1.546875 0.6875q-0.921875 0.234375 -2.1874924 0.234375q-0.96875 0 -1.703125 -0.203125q-0.734375 -0.1875 -1.21875 -0.546875q-0.484375 -0.359375 -0.71875 -0.875q-0.234375 -0.515625 -0.234375 -1.171875q0 -0.546875 0.171875 -0.96875q0.171875 -0.40625 0.46875 -0.703125q0.3125 -0.296875 0.703125 -0.484375q0.40625 -0.203125 0.828125 -0.296875q-0.390625 -0.171875 -0.640625 -0.546875q-0.234375 -0.375 -0.234375 -0.859375q0 -0.546875 0.28125 -0.953125q0.296875 -0.40625 0.921875 -0.796875q-0.390625 -0.15625 -0.71875 -0.4375q-0.3125 -0.296875 -0.546875 -0.65625q-0.21875 -0.375 -0.34375 -0.8125q-0.109375 -0.4375 -0.109375 -0.90625q0 -0.8125 0.21875 -1.4375q0.234375 -0.640625 0.671875 -1.078125q0.453125 -0.453125 1.109375 -0.6875q0.671875 -0.25 1.5625 -0.25q0.32811737 0 0.6874924 0.0625q0.359375 0.046875 0.609375 0.125l3.3125 0zm-7.3906174 11.640625q0 0.34375 0.109375 0.625q0.125 0.296875 0.390625 0.5q0.265625 0.21875 0.703125 0.328125q0.453125 0.125 1.109375 0.125q1.6874924 0 2.5312424 -0.53125q0.84375 -0.515625 0.84375 -1.5q0 -0.40625 -0.109375 -0.671875q-0.109375 -0.265625 -0.359375 -0.421875q-0.25 -0.140625 -0.65625 -0.1875q-0.40625 -0.0625 -1.0 -0.0625l-1.6093674 0q-0.3125 0 -0.671875 0.078125q-0.34375 0.0625 -0.625 0.25q-0.28125 0.203125 -0.46875 0.546875q-0.1875 0.359375 -0.1875 0.921875zm0.828125 -8.421875q0 1.046875 0.484375 1.5625q0.5 0.5 1.40625 0.5q0.9062424 0 1.3749924 -0.5q0.484375 -0.515625 0.484375 -1.59375q0 -1.125 -0.484375 -1.640625q-0.484375 -0.53125 -1.3906174 -0.53125q-0.90625 0 -1.390625 0.546875q-0.484375 0.546875 -0.484375 1.65625z" fill-rule="nonzero"/><path fill="#434343" d="m81.96366 300.18594q0 -1.140625 0.15625 -2.25q0.171875 -1.109375 0.5 -2.140625q0.34375 -1.046875 0.859375 -2.0q0.515625 -0.96875 1.21875 -1.8125l1.578125 0q-1.28125 1.75 -1.953125 3.859375q-0.65625 2.109375 -0.65625 4.328125q0 1.078125 0.171875 2.15625q0.171875 1.078125 0.484375 2.109375q0.328125 1.015625 0.8125 1.984375q0.484375 0.96875 1.109375 1.828125l-1.546875 0q-0.703125 -0.828125 -1.21875 -1.765625q-0.515625 -0.9375 -0.859375 -1.953125q-0.328125 -1.03125 -0.5 -2.125q-0.15625 -1.09375 -0.15625 -2.21875zm13.658325 -8.203125l1.796875 0l-4.453125 13.3125l-1.703125 0l-4.4375 -13.3125l1.796875 0l2.6875 8.4375q0.265625 0.828125 0.453125 1.609375q0.1875 0.765625 0.34375 1.4375q0.140625 -0.671875 0.34375 -1.4375q0.21875 -0.78125 0.5 -1.65625l2.671875 -8.390625zm11.594345 3.890625q0 0.828125 -0.25 1.59375q-0.25 0.765625 -0.828125 1.359375q-0.578125 0.578125 -1.515625 0.9375q-0.9375 0.34375 -2.328125 0.34375l-1.375 0l0 5.1875l-1.6875 0l0 -13.3125l3.296875 0q1.21875 0 2.09375 0.265625q0.890625 0.25 1.46875 0.75q0.578125 0.484375 0.84375 1.21875q0.28125 0.734375 0.28125 1.65625zm-6.296875 2.796875l1.1875 0q0.84375 0 1.46875 -0.140625q0.640625 -0.15625 1.046875 -0.46875q0.421875 -0.328125 0.625 -0.84375q0.21875 -0.515625 0.21875 -1.25q0 -1.296875 -0.75 -1.921875q-0.75 -0.625 -2.328125 -0.625l-1.46875 0l0 5.25zm16.077332 3.0625q0 0.890625 -0.3125 1.59375q-0.3125 0.6875 -0.90625 1.171875q-0.578125 0.484375 -1.421875 0.734375q-0.828125 0.25 -1.875 0.25q-1.015625 0 -1.890625 -0.171875q-0.875 -0.15625 -1.46875 -0.46875l0 -1.609375q0.296875 0.140625 0.6875 0.28125q0.40625 0.140625 0.84375 0.25q0.4375 0.109375 0.90625 0.1875q0.46875 0.0625 0.921875 0.0625q1.453125 0 2.140625 -0.546875q0.703125 -0.546875 0.703125 -1.5625q0 -0.5 -0.140625 -0.859375q-0.125 -0.375 -0.453125 -0.671875q-0.328125 -0.3125 -0.890625 -0.59375q-0.546875 -0.28125 -1.40625 -0.625q-0.796875 -0.3125 -1.40625 -0.6875q-0.59375 -0.390625 -0.984375 -0.859375q-0.375 -0.46875 -0.5625 -1.0625q-0.1875 -0.609375 -0.1875 -1.375q0 -0.8125 0.28125 -1.4375q0.296875 -0.625 0.828125 -1.046875q0.53125 -0.4375 1.265625 -0.671875q0.734375 -0.234375 1.609375 -0.234375q1.078125 0 1.9375 0.21875q0.875 0.203125 1.546875 0.515625l-0.609375 1.421875q-0.59375 -0.265625 -1.34375 -0.453125q-0.75 -0.203125 -1.546875 -0.203125q-1.109375 0 -1.71875 0.515625q-0.609375 0.515625 -0.609375 1.390625q0 0.515625 0.125 0.890625q0.140625 0.375 0.453125 0.6875q0.328125 0.3125 0.84375 0.578125q0.53125 0.265625 1.296875 0.5625q0.828125 0.328125 1.453125 0.671875q0.625 0.34375 1.046875 0.78125q0.421875 0.4375 0.625 1.015625q0.21875 0.578125 0.21875 1.359375zm5.7302704 -1.546875q0 1.125 -0.171875 2.21875q-0.15625 1.09375 -0.5 2.125q-0.34375 1.015625 -0.859375 1.953125q-0.515625 0.9375 -1.21875 1.765625l-1.546875 0q0.625 -0.859375 1.109375 -1.828125q0.484375 -0.96875 0.8125 -1.984375q0.328125 -1.03125 0.484375 -2.109375q0.171875 -1.078125 0.171875 -2.15625q0 -2.21875 -0.65625 -4.328125q-0.65625 -2.109375 -1.9375 -3.859375l1.5625 0q0.703125 0.84375 1.21875 1.8125q0.515625 0.953125 0.859375 2.0q0.34375 1.03125 0.5 2.140625q0.171875 1.109375 0.171875 2.25z" fill-rule="nonzero"/><path fill="#000000" fill-opacity="0.0" d="m282.86615 129.50656l-180.53543 110.20473" fill-rule="evenodd"/><path stroke="#b7b7b7" stroke-width="1.0" stroke-linejoin="round" stroke-linecap="butt" d="m282.86615 129.50656l-180.53543 110.20473" fill-rule="evenodd"/><path fill="#efefef" d="m438.80316 56.15223l136.75592 0l0 73.35433l-136.75592 0z" fill-rule="evenodd"/><path stroke="#cccccc" stroke-width="1.0" stroke-linejoin="round" stroke-linecap="butt" d="m438.80316 56.15223l136.75592 0l0 73.35433l-136.75592 0z" fill-rule="evenodd"/><path fill="#434343" d="m478.6727 98.40565l-0.078125 0q-0.203125 0.3125 -0.46875 0.59375q-0.265625 0.28125 -0.625 0.5q-0.34375 0.203125 -0.78125 0.3125q-0.4375 0.125 -0.984375 0.125q-0.84375 0 -1.546875 -0.328125q-0.703125 -0.328125 -1.203125 -0.984375q-0.5 -0.65625 -0.78125 -1.609375q-0.265625 -0.96875 -0.265625 -2.25q0 -1.28125 0.265625 -2.25q0.28125 -0.96875 0.78125 -1.625q0.5 -0.65625 1.203125 -0.984375q0.703125 -0.34375 1.546875 -0.34375q0.53125 0 0.96875 0.125q0.4375 0.109375 0.78125 0.3125q0.359375 0.203125 0.625 0.46875q0.28125 0.265625 0.484375 0.546875l0.109375 0q-0.03125 -0.296875 -0.046875 -0.578125q-0.03125 -0.25 -0.046875 -0.5q-0.015625 -0.25 -0.015625 -0.390625l0 -3.96875l1.65625 0l0 14.171875l-1.34375 0l-0.234375 -1.34375zm-2.625 0.15625q0.703125 0 1.171875 -0.203125q0.484375 -0.21875 0.78125 -0.640625q0.296875 -0.4375 0.4375 -1.078125q0.140625 -0.640625 0.15625 -1.5l0 -0.375q0 -0.921875 -0.125 -1.625q-0.125 -0.71875 -0.421875 -1.203125q-0.296875 -0.5 -0.796875 -0.75q-0.484375 -0.25 -1.21875 -0.25q-1.21875 0 -1.8125 1.0q-0.578125 0.984375 -0.578125 2.84375q0 1.90625 0.578125 2.84375q0.59375 0.9375 1.828125 0.9375zm15.5251465 -3.828125q0 1.25 -0.3125 2.21875q-0.296875 0.96875 -0.875 1.625q-0.5625 0.65625 -1.375 1.015625q-0.796875 0.34375 -1.8125 0.34375q-0.9375 0 -1.734375 -0.34375q-0.796875 -0.359375 -1.375 -1.015625q-0.578125 -0.65625 -0.90625 -1.625q-0.3125 -0.96875 -0.3125 -2.21875q0 -1.25 0.296875 -2.203125q0.3125 -0.96875 0.875 -1.625q0.5625 -0.65625 1.375 -1.0q0.828125 -0.34375 1.828125 -0.34375q0.9375 0 1.734375 0.34375q0.796875 0.34375 1.375 1.0q0.578125 0.65625 0.890625 1.625q0.328125 0.953125 0.328125 2.203125zm-7.0 0q0 1.90625 0.625 2.875q0.625 0.953125 2.03125 0.953125q1.40625 0 2.015625 -0.953125q0.625 -0.96875 0.625 -2.875q0 -1.90625 -0.625 -2.84375q-0.625 -0.953125 -2.03125 -0.953125q-1.40625 0 -2.03125 0.953125q-0.609375 0.9375 -0.609375 2.84375zm21.59555 5.015625l0 -6.4375q0 -1.1875 -0.453125 -1.78125q-0.453125 -0.59375 -1.40625 -0.59375q-0.671875 0 -1.140625 0.21875q-0.453125 0.21875 -0.75 0.640625q-0.296875 0.40625 -0.4375 1.015625q-0.140625 0.609375 -0.140625 1.421875l0 5.515625l-1.671875 0l0 -6.4375q0 -1.1875 -0.453125 -1.78125q-0.4375 -0.59375 -1.390625 -0.59375q-0.703125 0 -1.1875 0.25q-0.46875 0.234375 -0.765625 0.703125q-0.28125 0.453125 -0.40625 1.125q-0.109375 0.671875 -0.109375 1.546875l0 5.1875l-1.671875 0l0 -10.0l1.359375 0l0.234375 1.34375l0.09375 0q0.21875 -0.390625 0.515625 -0.671875q0.296875 -0.296875 0.65625 -0.484375q0.359375 -0.1875 0.765625 -0.28125q0.40625 -0.09375 0.828125 -0.09375q1.09375 0 1.8125 0.40625q0.734375 0.40625 1.078125 1.25l0.0625 0q0.25 -0.421875 0.578125 -0.734375q0.328125 -0.3125 0.71875 -0.515625q0.40625 -0.203125 0.84375 -0.296875q0.4375 -0.109375 0.890625 -0.109375q1.59375 0 2.390625 0.875q0.8125 0.875 0.8125 2.78125l0 6.53125l-1.65625 0zm10.372192 0l-0.328125 -1.390625l-0.078125 0q-0.296875 0.421875 -0.609375 0.71875q-0.296875 0.296875 -0.65625 0.484375q-0.34375 0.1875 -0.78125 0.28125q-0.4375 0.09375 -1.015625 0.09375q-0.625 0 -1.15625 -0.1875q-0.53125 -0.171875 -0.921875 -0.53125q-0.375 -0.375 -0.59375 -0.9375q-0.21875 -0.5625 -0.21875 -1.328125q0 -1.5 1.046875 -2.296875q1.046875 -0.796875 3.203125 -0.875l1.671875 -0.0625l0 -0.625q0 -0.609375 -0.140625 -1.015625q-0.125 -0.421875 -0.375 -0.671875q-0.25 -0.25 -0.625 -0.359375q-0.359375 -0.109375 -0.828125 -0.109375q-0.765625 0 -1.421875 0.21875q-0.640625 0.21875 -1.234375 0.53125l-0.59375 -1.25q0.671875 -0.359375 1.5 -0.609375q0.84375 -0.265625 1.75 -0.265625q0.921875 0 1.59375 0.1875q0.6875 0.1875 1.125 0.59375q0.453125 0.40625 0.671875 1.03125q0.21875 0.625 0.21875 1.53125l0 6.84375l-1.203125 0zm-3.03125 -1.15625q0.546875 0 1.015625 -0.171875q0.484375 -0.171875 0.828125 -0.515625q0.34375 -0.359375 0.53125 -0.890625q0.203125 -0.53125 0.203125 -1.25l0 -0.90625l-1.296875 0.0625q-0.828125 0.03125 -1.390625 0.1875q-0.546875 0.140625 -0.875 0.40625q-0.328125 0.25 -0.484375 0.625q-0.140625 0.359375 -0.140625 0.828125q0 0.84375 0.4375 1.234375q0.453125 0.390625 1.171875 0.390625zm8.964539 1.15625l-1.671875 0l0 -10.0l1.671875 0l0 10.0zm-1.796875 -12.703125q0 -0.546875 0.28125 -0.796875q0.28125 -0.25 0.6875 -0.25q0.203125 0 0.375 0.0625q0.1875 0.0625 0.3125 0.1875q0.140625 0.125 0.203125 0.328125q0.078125 0.1875 0.078125 0.46875q0 0.53125 -0.28125 0.796875q-0.28125 0.25 -0.6875 0.25q-0.40625 0 -0.6875 -0.25q-0.28125 -0.265625 -0.28125 -0.796875zm11.203003 12.703125l0 -6.4375q0 -1.1875 -0.484375 -1.78125q-0.46875 -0.59375 -1.484375 -0.59375q-0.734375 0 -1.234375 0.25q-0.5 0.234375 -0.8125 0.703125q-0.3125 0.453125 -0.4375 1.125q-0.125 0.671875 -0.125 1.546875l0 5.1875l-1.671875 0l0 -10.0l1.359375 0l0.234375 1.34375l0.09375 0q0.21875 -0.390625 0.53125 -0.671875q0.328125 -0.296875 0.6875 -0.484375q0.375 -0.1875 0.796875 -0.28125q0.421875 -0.09375 0.859375 -0.09375q1.671875 0 2.5 0.875q0.84375 0.875 0.84375 2.78125l0 6.53125l-1.65625 0zm10.720459 -2.734375q0 0.71875 -0.265625 1.265625q-0.25 0.546875 -0.75 0.921875q-0.5 0.359375 -1.203125 0.546875q-0.703125 0.1875 -1.578125 0.1875q-0.984375 0 -1.703125 -0.171875q-0.703125 -0.15625 -1.25 -0.46875l0 -1.5q0.296875 0.140625 0.640625 0.28125q0.34375 0.140625 0.71875 0.25q0.390625 0.109375 0.796875 0.1875q0.40625 0.0625 0.796875 0.0625q0.59375 0 1.0 -0.09375q0.421875 -0.109375 0.6875 -0.296875q0.265625 -0.1875 0.375 -0.453125q0.125 -0.265625 0.125 -0.59375q0 -0.28125 -0.09375 -0.515625q-0.09375 -0.234375 -0.34375 -0.453125q-0.234375 -0.21875 -0.65625 -0.4375q-0.40625 -0.234375 -1.0625 -0.515625q-0.65625 -0.28125 -1.1875 -0.546875q-0.515625 -0.28125 -0.890625 -0.625q-0.359375 -0.34375 -0.5625 -0.78125q-0.1875 -0.4375 -0.1875 -1.046875q0 -0.640625 0.25 -1.140625q0.25 -0.5 0.703125 -0.828125q0.453125 -0.34375 1.09375 -0.515625q0.640625 -0.171875 1.421875 -0.171875q0.875 0 1.609375 0.203125q0.734375 0.1875 1.390625 0.5l-0.5625 1.328125q-0.59375 -0.265625 -1.21875 -0.453125q-0.625 -0.203125 -1.28125 -0.203125q-0.921875 0 -1.375 0.3125q-0.4375 0.296875 -0.4375 0.859375q0 0.328125 0.09375 0.5625q0.109375 0.234375 0.359375 0.453125q0.265625 0.203125 0.6875 0.421875q0.4375 0.203125 1.0625 0.46875q0.65625 0.28125 1.171875 0.5625q0.515625 0.265625 0.875 0.609375q0.375 0.328125 0.5625 0.765625q0.1875 0.4375 0.1875 1.0625z" fill-rule="nonzero"/><path fill="#efefef" d="m596.9921 56.15223l136.75592 0l0 73.35433l-136.75592 0z" fill-rule="evenodd"/><path stroke="#cccccc" stroke-width="1.0" stroke-linejoin="round" stroke-linecap="butt" d="m596.9921 56.15223l136.75592 0l0 73.35433l-136.75592 0z" fill-rule="evenodd"/><path fill="#434343" d="m638.8227 99.7494l-4.03125 -11.65625l-0.078125 0q0.0625 0.671875 0.09375 1.328125q0.03125 0.578125 0.046875 1.21875q0.03125 0.625 0.03125 1.140625l0 7.96875l-1.5625 0l0 -13.3125l2.515625 0l3.75 10.859375l0.0625 0l3.765625 -10.859375l2.515625 0l0 13.3125l-1.703125 0l0 -8.078125q0 -0.46875 0.015625 -1.078125q0.03125 -0.625 0.0625 -1.171875q0.03125 -0.65625 0.0625 -1.3125l-0.078125 0l-4.078125 11.640625l-1.390625 0zm16.139343 0l-0.328125 -1.390625l-0.078125 0q-0.296875 0.421875 -0.609375 0.71875q-0.296875 0.296875 -0.65625 0.484375q-0.34375 0.1875 -0.78125 0.28125q-0.4375 0.09375 -1.015625 0.09375q-0.625 0 -1.15625 -0.1875q-0.53125 -0.171875 -0.921875 -0.53125q-0.375 -0.375 -0.59375 -0.9375q-0.21875 -0.5625 -0.21875 -1.328125q0 -1.5 1.046875 -2.296875q1.046875 -0.796875 3.203125 -0.875l1.671875 -0.0625l0 -0.625q0 -0.609375 -0.140625 -1.015625q-0.125 -0.421875 -0.375 -0.671875q-0.25 -0.25 -0.625 -0.359375q-0.359375 -0.109375 -0.828125 -0.109375q-0.765625 0 -1.421875 0.21875q-0.640625 0.21875 -1.234375 0.53125l-0.59375 -1.25q0.671875 -0.359375 1.5 -0.609375q0.84375 -0.265625 1.75 -0.265625q0.921875 0 1.59375 0.1875q0.6875 0.1875 1.125 0.59375q0.453125 0.40625 0.671875 1.03125q0.21875 0.625 0.21875 1.53125l0 6.84375l-1.203125 0zm-3.03125 -1.15625q0.546875 0 1.015625 -0.171875q0.484375 -0.171875 0.828125 -0.515625q0.34375 -0.359375 0.53125 -0.890625q0.203125 -0.53125 0.203125 -1.25l0 -0.90625l-1.296875 0.0625q-0.828125 0.03125 -1.390625 0.1875q-0.546875 0.140625 -0.875 0.40625q-0.328125 0.25 -0.484375 0.625q-0.140625 0.359375 -0.140625 0.828125q0 0.84375 0.4375 1.234375q0.453125 0.390625 1.171875 0.390625zm11.823914 1.34375q-0.546875 0 -0.984375 -0.125q-0.4375 -0.109375 -0.796875 -0.3125q-0.34375 -0.203125 -0.609375 -0.453125q-0.265625 -0.265625 -0.46875 -0.5625l-0.109375 0q0.015625 0.3125 0.046875 0.59375q0.015625 0.234375 0.03125 0.484375q0.03125 0.25 0.03125 0.390625l0 4.28125l-1.671875 0l0 -14.484375l1.359375 0l0.234375 1.34375l0.078125 0q0.203125 -0.3125 0.46875 -0.59375q0.265625 -0.28125 0.609375 -0.484375q0.359375 -0.203125 0.796875 -0.328125q0.4375 -0.125 0.984375 -0.125q0.84375 0 1.546875 0.328125q0.703125 0.328125 1.203125 0.984375q0.5 0.65625 0.765625 1.625q0.28125 0.953125 0.28125 2.234375q0 1.28125 -0.28125 2.25q-0.265625 0.96875 -0.765625 1.625q-0.5 0.65625 -1.203125 1.0q-0.703125 0.328125 -1.546875 0.328125zm-0.328125 -9.0q-0.6875 0 -1.171875 0.21875q-0.46875 0.203125 -0.765625 0.640625q-0.296875 0.421875 -0.4375 1.0625q-0.140625 0.625 -0.15625 1.5l0 0.375q0 0.921875 0.109375 1.640625q0.125 0.703125 0.421875 1.203125q0.296875 0.484375 0.78125 0.734375q0.5 0.25 1.234375 0.25q1.234375 0 1.8125 -0.984375q0.578125 -1.0 0.578125 -2.859375q0 -1.90625 -0.578125 -2.84375q-0.578125 -0.9375 -1.828125 -0.9375zm11.2595215 -1.375q0.84375 0 1.546875 0.328125q0.703125 0.328125 1.203125 0.984375q0.5 0.65625 0.765625 1.625q0.28125 0.953125 0.28125 2.234375q0 1.28125 -0.28125 2.25q-0.265625 0.96875 -0.765625 1.625q-0.5 0.65625 -1.203125 1.0q-0.703125 0.328125 -1.546875 0.328125q-0.546875 0 -0.984375 -0.125q-0.4375 -0.109375 -0.796875 -0.3125q-0.34375 -0.203125 -0.609375 -0.453125q-0.265625 -0.265625 -0.46875 -0.5625l-0.109375 0l-0.34375 1.265625l-1.21875 0l0 -14.171875l1.671875 0l0 3.421875q0 0.3125 -0.015625 0.6875q-0.015625 0.359375 -0.03125 0.65625q-0.015625 0.375 -0.03125 0.71875l0.078125 0q0.203125 -0.328125 0.46875 -0.59375q0.265625 -0.28125 0.609375 -0.46875q0.359375 -0.203125 0.796875 -0.3125q0.4375 -0.125 0.984375 -0.125zm-0.328125 1.375q-0.71875 0 -1.21875 0.234375q-0.484375 0.234375 -0.78125 0.71875q-0.296875 0.46875 -0.421875 1.1875q-0.109375 0.703125 -0.109375 1.65625q0 0.921875 0.109375 1.640625q0.125 0.703125 0.421875 1.203125q0.296875 0.484375 0.78125 0.734375q0.5 0.25 1.234375 0.25q1.234375 0 1.8125 -0.984375q0.578125 -1.0 0.578125 -2.859375q0 -1.90625 -0.578125 -2.84375q-0.578125 -0.9375 -1.828125 -0.9375zm14.8845215 3.796875q0 1.25 -0.3125 2.21875q-0.296875 0.96875 -0.875 1.625q-0.5625 0.65625 -1.375 1.015625q-0.796875 0.34375 -1.8125 0.34375q-0.9375 0 -1.734375 -0.34375q-0.796875 -0.359375 -1.375 -1.015625q-0.578125 -0.65625 -0.90625 -1.625q-0.3125 -0.96875 -0.3125 -2.21875q0 -1.25 0.296875 -2.203125q0.3125 -0.96875 0.875 -1.625q0.5625 -0.65625 1.375 -1.0q0.828125 -0.34375 1.828125 -0.34375q0.9375 0 1.734375 0.34375q0.796875 0.34375 1.375 1.0q0.578125 0.65625 0.890625 1.625q0.328125 0.953125 0.328125 2.203125zm-7.0 0q0 1.90625 0.625 2.875q0.625 0.953125 2.03125 0.953125q1.40625 0 2.015625 -0.953125q0.625 -0.96875 0.625 -2.875q0 -1.90625 -0.625 -2.84375q-0.625 -0.953125 -2.03125 -0.953125q-1.40625 0 -2.03125 0.953125q-0.609375 0.9375 -0.609375 2.84375zm11.378113 -0.109375l-3.21875 -4.875l1.890625 0l2.28125 3.734375l2.265625 -3.734375l1.890625 0l-3.234375 4.875l3.390625 5.125l-1.875 0l-2.4375 -3.96875l-2.46875 3.96875l-1.890625 0l3.40625 -5.125z" fill-rule="nonzero"/></g></svg>